G04*
G04 #@! TF.GenerationSoftware,Altium Limited,Altium Designer,21.5.1 (32)*
G04*
G04 Layer_Color=16711935*
%FSLAX25Y25*%
%MOIN*%
G70*
G04*
G04 #@! TF.SameCoordinates,FA076E1F-1FF3-4579-943B-07A78E15B8C1*
G04*
G04*
G04 #@! TF.FilePolarity,Negative*
G04*
G01*
G75*
%ADD72C,0.03950*%
%ADD87C,0.07493*%
%ADD88P,0.06406X8X112.5*%
%ADD89C,0.05918*%
%ADD90C,0.05512*%
%ADD91C,0.07480*%
%ADD92C,0.03347*%
%ADD93C,0.00800*%
G04:AMPARAMS|DCode=94|XSize=43.43mil|YSize=70.99mil|CornerRadius=12.86mil|HoleSize=0mil|Usage=FLASHONLY|Rotation=270.000|XOffset=0mil|YOffset=0mil|HoleType=Round|Shape=RoundedRectangle|*
%AMROUNDEDRECTD94*
21,1,0.04343,0.04528,0,0,270.0*
21,1,0.01772,0.07099,0,0,270.0*
1,1,0.02572,-0.02264,-0.00886*
1,1,0.02572,-0.02264,0.00886*
1,1,0.02572,0.02264,0.00886*
1,1,0.02572,0.02264,-0.00886*
%
%ADD94ROUNDEDRECTD94*%
%ADD95C,0.03600*%
D72*
X198949Y46811D02*
D03*
X203279D02*
D03*
X198949Y42480D02*
D03*
X203279D02*
D03*
X198949Y38150D02*
D03*
X203279D02*
D03*
X198949Y33819D02*
D03*
X203279D02*
D03*
X198949Y29488D02*
D03*
X203279D02*
D03*
X198949Y25157D02*
D03*
X203279D02*
D03*
D87*
X133622Y88000D02*
D03*
Y128000D02*
D03*
X145000Y108000D02*
D03*
D88*
X236000Y175842D02*
D03*
D89*
Y156158D02*
D03*
X56000Y42500D02*
D03*
X46000Y47500D02*
D03*
X56000Y52500D02*
D03*
X46000Y57500D02*
D03*
D90*
X11000Y86000D02*
D03*
Y103717D02*
D03*
D91*
X20803Y81059D02*
D03*
Y108658D02*
D03*
D92*
X37500Y172000D02*
D03*
X41500Y152000D02*
D03*
X33500D02*
D03*
D93*
X21000Y35000D02*
D03*
Y65000D02*
D03*
X307087Y43307D02*
D03*
D94*
X6000Y185592D02*
D03*
X6197Y159400D02*
D03*
D95*
X46000Y107000D02*
D03*
X65000Y118000D02*
D03*
X168000Y76000D02*
D03*
X196000Y93000D02*
D03*
X172000Y99000D02*
D03*
X129318Y75318D02*
D03*
X126000Y114000D02*
D03*
X128000Y128000D02*
D03*
X122937Y128469D02*
D03*
X248602Y141500D02*
D03*
X244000Y128000D02*
D03*
X243000Y190000D02*
D03*
X246000D02*
D03*
X249000D02*
D03*
X252000D02*
D03*
X268000D02*
D03*
X264000D02*
D03*
X261000D02*
D03*
X258000D02*
D03*
X153900Y145000D02*
D03*
Y149000D02*
D03*
Y159000D02*
D03*
Y153000D02*
D03*
X148000Y90000D02*
D03*
X211000Y58000D02*
D03*
X208454Y37214D02*
D03*
X211500Y84013D02*
D03*
X174500Y41000D02*
D03*
X204500Y82500D02*
D03*
X187000Y65656D02*
D03*
X192000Y76000D02*
D03*
X207732Y64268D02*
D03*
X174000Y54000D02*
D03*
X217888Y18201D02*
D03*
X216500Y58500D02*
D03*
X218100Y27028D02*
D03*
X90000Y67000D02*
D03*
X105000Y68000D02*
D03*
X187000Y16487D02*
D03*
X184000Y24000D02*
D03*
Y19276D02*
D03*
X174000Y126000D02*
D03*
Y130000D02*
D03*
Y134000D02*
D03*
X157096Y51596D02*
D03*
X217455Y21955D02*
D03*
X222000Y24500D02*
D03*
X224500Y29500D02*
D03*
X154692Y49192D02*
D03*
X159500Y54000D02*
D03*
X267000Y78500D02*
D03*
X266500Y71000D02*
D03*
X263500Y68000D02*
D03*
X259500Y66000D02*
D03*
X227487Y13500D02*
D03*
X234527Y15072D02*
D03*
X241000Y68000D02*
D03*
X229500Y58500D02*
D03*
X293298Y52702D02*
D03*
X285000Y184500D02*
D03*
Y178500D02*
D03*
X45756Y183000D02*
D03*
X148000Y78000D02*
D03*
X150500Y87000D02*
D03*
X162500Y59000D02*
D03*
X174000Y103000D02*
D03*
X90328Y125828D02*
D03*
X86500Y116000D02*
D03*
X89714Y103715D02*
D03*
X97362Y98000D02*
D03*
X213634Y72000D02*
D03*
X222378Y83878D02*
D03*
X216675Y83825D02*
D03*
X267000Y75000D02*
D03*
X243500Y40000D02*
D03*
X245000Y66000D02*
D03*
X248500D02*
D03*
X252500D02*
D03*
X256000D02*
D03*
X244007Y57993D02*
D03*
X229000Y48500D02*
D03*
X228500Y34500D02*
D03*
X162500Y23000D02*
D03*
X241547Y34000D02*
D03*
X65518Y165018D02*
D03*
X52000Y184500D02*
D03*
X78732Y144732D02*
D03*
X270500Y178500D02*
D03*
Y184500D02*
D03*
X174000Y107000D02*
D03*
X276000Y32000D02*
D03*
X280000D02*
D03*
X155000Y67500D02*
D03*
X298000Y139370D02*
D03*
Y149213D02*
D03*
X174000Y111000D02*
D03*
X204000Y92500D02*
D03*
X204500Y120500D02*
D03*
X188000Y111000D02*
D03*
X213500Y106500D02*
D03*
X188000Y103000D02*
D03*
X272000Y48000D02*
D03*
Y52000D02*
D03*
Y56000D02*
D03*
X308000Y32000D02*
D03*
X304000D02*
D03*
X300000D02*
D03*
X296000D02*
D03*
X292000D02*
D03*
X288000D02*
D03*
X284000D02*
D03*
X300500Y41000D02*
D03*
X295500D02*
D03*
X290500D02*
D03*
X144000Y78000D02*
D03*
X130000Y58000D02*
D03*
X126000D02*
D03*
X122000D02*
D03*
X118000D02*
D03*
X126000Y76000D02*
D03*
X122000D02*
D03*
X118000D02*
D03*
X140000Y78000D02*
D03*
X130000Y34000D02*
D03*
Y38000D02*
D03*
Y42000D02*
D03*
X242000Y84000D02*
D03*
Y72000D02*
D03*
Y76000D02*
D03*
Y80000D02*
D03*
X246000Y84000D02*
D03*
X250000D02*
D03*
X254000D02*
D03*
Y80000D02*
D03*
X250000D02*
D03*
X246000D02*
D03*
Y72000D02*
D03*
Y76000D02*
D03*
X250000Y29650D02*
D03*
X262000D02*
D03*
X254000D02*
D03*
X246000D02*
D03*
X258000D02*
D03*
X188000Y76000D02*
D03*
X184000D02*
D03*
X176000D02*
D03*
X172000D02*
D03*
X188000Y126000D02*
D03*
Y130000D02*
D03*
Y134000D02*
D03*
Y138000D02*
D03*
X174000D02*
D03*
X188000Y107000D02*
D03*
X308000Y70000D02*
D03*
X274000Y22000D02*
D03*
Y10000D02*
D03*
Y14000D02*
D03*
X272000Y60000D02*
D03*
Y64000D02*
D03*
X274000Y18000D02*
D03*
X264000Y58000D02*
D03*
X260000D02*
D03*
X256000D02*
D03*
X252000D02*
D03*
X248000D02*
D03*
X136744Y12000D02*
D03*
X83617Y127774D02*
D03*
X113500Y100500D02*
D03*
X99528Y26528D02*
D03*
X77138Y71862D02*
D03*
X77362Y58862D02*
D03*
X77638Y53138D02*
D03*
X63000Y32000D02*
D03*
X100500Y80500D02*
D03*
X52000Y123500D02*
D03*
X45500Y147500D02*
D03*
X30000Y156000D02*
D03*
X57518Y133518D02*
D03*
X22500Y162500D02*
D03*
X26482Y170018D02*
D03*
X64000Y144000D02*
D03*
X78929Y134374D02*
D03*
X104500Y167000D02*
D03*
X111015Y160987D02*
D03*
X74862Y167638D02*
D03*
X64000Y81000D02*
D03*
X74000D02*
D03*
X90862Y94138D02*
D03*
X87862D02*
D03*
X137000Y157000D02*
D03*
X79000Y138000D02*
D03*
X81945Y161945D02*
D03*
X119000Y167000D02*
D03*
X127000Y180000D02*
D03*
X80102Y126102D02*
D03*
X29000Y121000D02*
D03*
X30000Y140000D02*
D03*
Y135000D02*
D03*
Y130000D02*
D03*
X20600Y167400D02*
D03*
X17000Y144000D02*
D03*
Y148000D02*
D03*
M02*
