G04*
G04 #@! TF.GenerationSoftware,Altium Limited,Altium Designer,21.5.1 (32)*
G04*
G04 Layer_Color=8388736*
%FSLAX25Y25*%
%MOIN*%
G70*
G04*
G04 #@! TF.SameCoordinates,FA076E1F-1FF3-4579-943B-07A78E15B8C1*
G04*
G04*
G04 #@! TF.FilePolarity,Negative*
G04*
G01*
G75*
%ADD21R,0.03772X0.03591*%
%ADD23R,0.02985X0.03197*%
%ADD24R,0.07874X0.19685*%
%ADD28R,0.04560X0.03985*%
%ADD38R,0.05118X0.04134*%
%ADD39R,0.04331X0.07480*%
%ADD40R,0.08583X0.02362*%
%ADD41R,0.06221X0.04173*%
%ADD42R,0.03591X0.03772*%
%ADD44R,0.02362X0.06102*%
%ADD57R,0.07100X0.02000*%
%ADD58R,0.02000X0.07100*%
%ADD59R,0.03162X0.03950*%
%ADD60R,0.21076X0.03556*%
%ADD61O,0.06312X0.02572*%
%ADD62R,0.10249X0.26233*%
%ADD63R,0.05918X0.11430*%
%ADD64R,0.03556X0.04343*%
%ADD65R,0.11824X0.21666*%
%ADD66R,0.04343X0.03556*%
%ADD67R,0.12611X0.06312*%
%ADD68R,0.22847X0.09461*%
%ADD69R,0.03950X0.04737*%
%ADD70R,0.04737X0.07493*%
%ADD71R,0.15800X0.11800*%
%ADD72C,0.03950*%
%ADD73R,0.11430X0.05918*%
%ADD74R,0.05721X0.07887*%
%ADD75R,0.06706X0.03162*%
%ADD76R,0.06200X0.02400*%
%ADD77R,0.06400X0.07100*%
%ADD78R,0.07900X0.07900*%
%ADD79R,0.09500X0.15000*%
%ADD80R,0.09600X0.05600*%
%ADD81R,0.12414X0.10052*%
%ADD82R,0.18123X0.13792*%
%ADD83R,0.25210X0.16154*%
%ADD84R,0.03359X0.05524*%
%ADD85R,0.03556X0.05524*%
%ADD86R,0.19304X0.18517*%
%ADD87C,0.07493*%
%ADD88P,0.06406X8X112.5*%
%ADD89C,0.05918*%
%ADD90C,0.05512*%
%ADD91C,0.07480*%
%ADD92C,0.03347*%
%ADD93C,0.00800*%
G04:AMPARAMS|DCode=94|XSize=43.43mil|YSize=70.99mil|CornerRadius=12.86mil|HoleSize=0mil|Usage=FLASHONLY|Rotation=270.000|XOffset=0mil|YOffset=0mil|HoleType=Round|Shape=RoundedRectangle|*
%AMROUNDEDRECTD94*
21,1,0.04343,0.04528,0,0,270.0*
21,1,0.01772,0.07099,0,0,270.0*
1,1,0.02572,-0.02264,-0.00886*
1,1,0.02572,-0.02264,0.00886*
1,1,0.02572,0.02264,0.00886*
1,1,0.02572,0.02264,-0.00886*
%
%ADD94ROUNDEDRECTD94*%
%ADD95C,0.03600*%
D21*
X52138Y107000D02*
D03*
X57862D02*
D03*
X174138Y25500D02*
D03*
X179862D02*
D03*
X166638Y59000D02*
D03*
X172362D02*
D03*
X136972Y180102D02*
D03*
X131248D02*
D03*
X127311Y156480D02*
D03*
X133035D02*
D03*
X109138Y167000D02*
D03*
X114862D02*
D03*
X74862Y164000D02*
D03*
X69138D02*
D03*
X220138Y58500D02*
D03*
X225862D02*
D03*
D23*
X224468Y35000D02*
D03*
X219531D02*
D03*
D24*
X181000Y107000D02*
D03*
Y129000D02*
D03*
D28*
X238256Y27500D02*
D03*
X231744D02*
D03*
Y39500D02*
D03*
X238256D02*
D03*
Y19000D02*
D03*
X231744D02*
D03*
D38*
X126236Y164945D02*
D03*
X135291D02*
D03*
Y172228D02*
D03*
X126236D02*
D03*
D39*
X64000Y99000D02*
D03*
X73843D02*
D03*
D40*
X10118Y126945D02*
D03*
Y130488D02*
D03*
Y134031D02*
D03*
Y137575D02*
D03*
Y141118D02*
D03*
D41*
X8937Y122417D02*
D03*
Y145646D02*
D03*
D42*
X84000Y94138D02*
D03*
Y99862D02*
D03*
X64000Y89862D02*
D03*
Y84138D02*
D03*
X74000Y89862D02*
D03*
Y84138D02*
D03*
X62000Y138862D02*
D03*
Y133138D02*
D03*
X94000Y99862D02*
D03*
Y94138D02*
D03*
X62000Y125862D02*
D03*
Y120138D02*
D03*
X126000Y123862D02*
D03*
Y118138D02*
D03*
X82000Y58862D02*
D03*
Y53138D02*
D03*
Y71862D02*
D03*
Y66138D02*
D03*
X233500Y53638D02*
D03*
Y59362D02*
D03*
D44*
X105500Y53370D02*
D03*
X100500D02*
D03*
X95500D02*
D03*
X90500D02*
D03*
Y74630D02*
D03*
X95500D02*
D03*
X100500D02*
D03*
X105500D02*
D03*
D57*
X72299Y118095D02*
D03*
Y120063D02*
D03*
Y122031D02*
D03*
Y124000D02*
D03*
Y125969D02*
D03*
Y127937D02*
D03*
Y129905D02*
D03*
Y131874D02*
D03*
Y133858D02*
D03*
Y135858D02*
D03*
Y137858D02*
D03*
Y139758D02*
D03*
Y141758D02*
D03*
Y143758D02*
D03*
Y145658D02*
D03*
Y147658D02*
D03*
X117240D02*
D03*
Y145658D02*
D03*
Y143758D02*
D03*
Y141758D02*
D03*
Y139758D02*
D03*
Y137858D02*
D03*
Y135858D02*
D03*
Y133858D02*
D03*
Y131874D02*
D03*
Y129905D02*
D03*
Y127937D02*
D03*
Y125969D02*
D03*
Y124000D02*
D03*
Y122031D02*
D03*
Y120063D02*
D03*
Y118095D02*
D03*
D58*
X79976Y155358D02*
D03*
X81945D02*
D03*
X83913D02*
D03*
X85882D02*
D03*
X87850D02*
D03*
X89819D02*
D03*
X91787D02*
D03*
X93756D02*
D03*
X95740D02*
D03*
X97740D02*
D03*
X99740D02*
D03*
X101640D02*
D03*
X103640D02*
D03*
X105640D02*
D03*
X107540D02*
D03*
X109540D02*
D03*
Y110417D02*
D03*
X107540D02*
D03*
X105640D02*
D03*
X103640D02*
D03*
X101640D02*
D03*
X99740D02*
D03*
X97740D02*
D03*
X95740D02*
D03*
X93756D02*
D03*
X91787D02*
D03*
X89819D02*
D03*
X87850D02*
D03*
X85882D02*
D03*
X83913D02*
D03*
X81945D02*
D03*
X79976D02*
D03*
D59*
X219941Y48500D02*
D03*
X225059D02*
D03*
D60*
X255000Y185516D02*
D03*
Y162484D02*
D03*
D61*
X189500Y52618D02*
D03*
Y50059D02*
D03*
Y47500D02*
D03*
Y44941D02*
D03*
Y42382D02*
D03*
Y39823D02*
D03*
Y37264D02*
D03*
Y34705D02*
D03*
Y32146D02*
D03*
Y29587D02*
D03*
Y27028D02*
D03*
Y24468D02*
D03*
Y21910D02*
D03*
Y19350D02*
D03*
X212728Y52618D02*
D03*
Y50059D02*
D03*
Y47500D02*
D03*
Y44941D02*
D03*
Y42382D02*
D03*
Y39823D02*
D03*
Y37264D02*
D03*
Y34705D02*
D03*
Y32146D02*
D03*
Y29587D02*
D03*
Y27028D02*
D03*
Y24468D02*
D03*
Y21910D02*
D03*
Y19350D02*
D03*
D62*
X201114Y35984D02*
D03*
D63*
X127012Y90500D02*
D03*
X115988D02*
D03*
X80512Y32000D02*
D03*
X69488D02*
D03*
D64*
X222256Y79000D02*
D03*
X216744D02*
D03*
X162244Y19500D02*
D03*
X167756D02*
D03*
X204744Y79000D02*
D03*
X210256D02*
D03*
X204744Y72500D02*
D03*
X210256D02*
D03*
X222256Y72000D02*
D03*
X216744D02*
D03*
X31256Y183000D02*
D03*
X25744D02*
D03*
X42256D02*
D03*
X36744D02*
D03*
X174244Y31500D02*
D03*
X179756D02*
D03*
X232244Y34000D02*
D03*
X237756D02*
D03*
X134756Y141000D02*
D03*
X129244D02*
D03*
X197244Y65000D02*
D03*
X202756D02*
D03*
X147756Y143000D02*
D03*
X142244D02*
D03*
X134756Y146000D02*
D03*
X129244D02*
D03*
X177744Y64000D02*
D03*
X183256D02*
D03*
X183256Y59000D02*
D03*
X177744D02*
D03*
X174244Y19500D02*
D03*
X179756D02*
D03*
X174244Y36500D02*
D03*
X179756D02*
D03*
X274744Y184500D02*
D03*
X280256D02*
D03*
X274744Y178500D02*
D03*
X280256D02*
D03*
X26756Y130000D02*
D03*
X21244D02*
D03*
X26756Y135000D02*
D03*
X21244D02*
D03*
X26756Y140000D02*
D03*
X21244D02*
D03*
D65*
X204331Y106299D02*
D03*
X244094D02*
D03*
D66*
X244000Y133244D02*
D03*
Y138756D02*
D03*
Y143744D02*
D03*
Y149256D02*
D03*
X239000Y47244D02*
D03*
Y52756D02*
D03*
X27000Y166756D02*
D03*
Y161244D02*
D03*
D67*
X281693Y168898D02*
D03*
Y159055D02*
D03*
Y149213D02*
D03*
Y139370D02*
D03*
D68*
X300787Y181496D02*
D03*
Y126772D02*
D03*
D69*
X237953Y11500D02*
D03*
X232047D02*
D03*
D70*
X250791Y74000D02*
D03*
X262209D02*
D03*
D71*
X262000Y123951D02*
D03*
Y152049D02*
D03*
D72*
X40000Y162000D02*
D03*
X35000Y157000D02*
D03*
Y162000D02*
D03*
X40000Y167000D02*
D03*
X35000D02*
D03*
X40000Y157000D02*
D03*
X198949Y46811D02*
D03*
X203279D02*
D03*
X198949Y42480D02*
D03*
X203279D02*
D03*
X198949Y38150D02*
D03*
X203279D02*
D03*
X198949Y33819D02*
D03*
X203279D02*
D03*
X198949Y29488D02*
D03*
X203279D02*
D03*
X198949Y25157D02*
D03*
X203279D02*
D03*
D73*
X52000Y128488D02*
D03*
Y139512D02*
D03*
X187000Y81488D02*
D03*
Y92512D02*
D03*
X172000Y81488D02*
D03*
Y92512D02*
D03*
D74*
X82004Y20000D02*
D03*
X69996D02*
D03*
X68996Y44000D02*
D03*
X81004D02*
D03*
D75*
X104260Y25740D02*
D03*
Y18260D02*
D03*
X111740Y22000D02*
D03*
D76*
X16433Y172600D02*
D03*
Y170000D02*
D03*
Y175159D02*
D03*
Y177718D02*
D03*
Y167400D02*
D03*
D77*
X15449Y160000D02*
D03*
Y185198D02*
D03*
D78*
X6000Y177128D02*
D03*
Y168000D02*
D03*
D79*
X147300Y43000D02*
D03*
D80*
X122800Y33900D02*
D03*
Y43000D02*
D03*
Y52100D02*
D03*
D81*
X143744Y19000D02*
D03*
X124256D02*
D03*
X125256Y67000D02*
D03*
X144744D02*
D03*
D82*
X256693Y46063D02*
D03*
D83*
X292126Y68701D02*
D03*
Y17913D02*
D03*
D84*
X260236Y84646D02*
D03*
X265236D02*
D03*
X270236D02*
D03*
X275236D02*
D03*
D85*
X260236Y106890D02*
D03*
X265236D02*
D03*
X270236D02*
D03*
X275236D02*
D03*
D86*
X267717Y98425D02*
D03*
D87*
X133622Y88000D02*
D03*
Y128000D02*
D03*
X145000Y108000D02*
D03*
D88*
X236000Y175842D02*
D03*
D89*
Y156158D02*
D03*
X56000Y42500D02*
D03*
X46000Y47500D02*
D03*
X56000Y52500D02*
D03*
X46000Y57500D02*
D03*
D90*
X11000Y86000D02*
D03*
Y103717D02*
D03*
D91*
X20803Y81059D02*
D03*
Y108658D02*
D03*
D92*
X37500Y172000D02*
D03*
X41500Y152000D02*
D03*
X33500D02*
D03*
D93*
X21000Y35000D02*
D03*
Y65000D02*
D03*
X307087Y43307D02*
D03*
D94*
X6000Y185592D02*
D03*
X6197Y159400D02*
D03*
D95*
X46000Y107000D02*
D03*
X65000Y118000D02*
D03*
X168000Y76000D02*
D03*
X196000Y93000D02*
D03*
X172000Y99000D02*
D03*
X129318Y75318D02*
D03*
X126000Y114000D02*
D03*
X128000Y128000D02*
D03*
X122937Y128469D02*
D03*
X248602Y141500D02*
D03*
X244000Y128000D02*
D03*
X243000Y190000D02*
D03*
X246000D02*
D03*
X249000D02*
D03*
X252000D02*
D03*
X268000D02*
D03*
X264000D02*
D03*
X261000D02*
D03*
X258000D02*
D03*
X153900Y145000D02*
D03*
Y149000D02*
D03*
Y159000D02*
D03*
Y153000D02*
D03*
X148000Y90000D02*
D03*
X211000Y58000D02*
D03*
X208454Y37214D02*
D03*
X211500Y84013D02*
D03*
X174500Y41000D02*
D03*
X204500Y82500D02*
D03*
X187000Y65656D02*
D03*
X192000Y76000D02*
D03*
X207732Y64268D02*
D03*
X174000Y54000D02*
D03*
X217888Y18201D02*
D03*
X216500Y58500D02*
D03*
X218100Y27028D02*
D03*
X90000Y67000D02*
D03*
X105000Y68000D02*
D03*
X187000Y16487D02*
D03*
X184000Y24000D02*
D03*
Y19276D02*
D03*
X174000Y126000D02*
D03*
Y130000D02*
D03*
Y134000D02*
D03*
X157096Y51596D02*
D03*
X217455Y21955D02*
D03*
X222000Y24500D02*
D03*
X224500Y29500D02*
D03*
X154692Y49192D02*
D03*
X159500Y54000D02*
D03*
X267000Y78500D02*
D03*
X266500Y71000D02*
D03*
X263500Y68000D02*
D03*
X259500Y66000D02*
D03*
X227487Y13500D02*
D03*
X234527Y15072D02*
D03*
X241000Y68000D02*
D03*
X229500Y58500D02*
D03*
X293298Y52702D02*
D03*
X285000Y184500D02*
D03*
Y178500D02*
D03*
X45756Y183000D02*
D03*
X148000Y78000D02*
D03*
X150500Y87000D02*
D03*
X162500Y59000D02*
D03*
X174000Y103000D02*
D03*
X90328Y125828D02*
D03*
X86500Y116000D02*
D03*
X89714Y103715D02*
D03*
X97362Y98000D02*
D03*
X213634Y72000D02*
D03*
X222378Y83878D02*
D03*
X216675Y83825D02*
D03*
X267000Y75000D02*
D03*
X243500Y40000D02*
D03*
X245000Y66000D02*
D03*
X248500D02*
D03*
X252500D02*
D03*
X256000D02*
D03*
X244007Y57993D02*
D03*
X229000Y48500D02*
D03*
X228500Y34500D02*
D03*
X162500Y23000D02*
D03*
X241547Y34000D02*
D03*
X65518Y165018D02*
D03*
X52000Y184500D02*
D03*
X78732Y144732D02*
D03*
X270500Y178500D02*
D03*
Y184500D02*
D03*
X174000Y107000D02*
D03*
X276000Y32000D02*
D03*
X280000D02*
D03*
X155000Y67500D02*
D03*
X298000Y139370D02*
D03*
Y149213D02*
D03*
X174000Y111000D02*
D03*
X204000Y92500D02*
D03*
X204500Y120500D02*
D03*
X188000Y111000D02*
D03*
X213500Y106500D02*
D03*
X188000Y103000D02*
D03*
X272000Y48000D02*
D03*
Y52000D02*
D03*
Y56000D02*
D03*
X308000Y32000D02*
D03*
X304000D02*
D03*
X300000D02*
D03*
X296000D02*
D03*
X292000D02*
D03*
X288000D02*
D03*
X284000D02*
D03*
X300500Y41000D02*
D03*
X295500D02*
D03*
X290500D02*
D03*
X144000Y78000D02*
D03*
X130000Y58000D02*
D03*
X126000D02*
D03*
X122000D02*
D03*
X118000D02*
D03*
X126000Y76000D02*
D03*
X122000D02*
D03*
X118000D02*
D03*
X140000Y78000D02*
D03*
X130000Y34000D02*
D03*
Y38000D02*
D03*
Y42000D02*
D03*
X242000Y84000D02*
D03*
Y72000D02*
D03*
Y76000D02*
D03*
Y80000D02*
D03*
X246000Y84000D02*
D03*
X250000D02*
D03*
X254000D02*
D03*
Y80000D02*
D03*
X250000D02*
D03*
X246000D02*
D03*
Y72000D02*
D03*
Y76000D02*
D03*
X250000Y29650D02*
D03*
X262000D02*
D03*
X254000D02*
D03*
X246000D02*
D03*
X258000D02*
D03*
X188000Y76000D02*
D03*
X184000D02*
D03*
X176000D02*
D03*
X172000D02*
D03*
X188000Y126000D02*
D03*
Y130000D02*
D03*
Y134000D02*
D03*
Y138000D02*
D03*
X174000D02*
D03*
X188000Y107000D02*
D03*
X308000Y70000D02*
D03*
X274000Y22000D02*
D03*
Y10000D02*
D03*
Y14000D02*
D03*
X272000Y60000D02*
D03*
Y64000D02*
D03*
X274000Y18000D02*
D03*
X264000Y58000D02*
D03*
X260000D02*
D03*
X256000D02*
D03*
X252000D02*
D03*
X248000D02*
D03*
X136744Y12000D02*
D03*
X83617Y127774D02*
D03*
X113500Y100500D02*
D03*
X99528Y26528D02*
D03*
X77138Y71862D02*
D03*
X77362Y58862D02*
D03*
X77638Y53138D02*
D03*
X63000Y32000D02*
D03*
X100500Y80500D02*
D03*
X52000Y123500D02*
D03*
X45500Y147500D02*
D03*
X30000Y156000D02*
D03*
X57518Y133518D02*
D03*
X22500Y162500D02*
D03*
X26482Y170018D02*
D03*
X64000Y144000D02*
D03*
X78929Y134374D02*
D03*
X104500Y167000D02*
D03*
X111015Y160987D02*
D03*
X74862Y167638D02*
D03*
X64000Y81000D02*
D03*
X74000D02*
D03*
X90862Y94138D02*
D03*
X87862D02*
D03*
X137000Y157000D02*
D03*
X79000Y138000D02*
D03*
X81945Y161945D02*
D03*
X119000Y167000D02*
D03*
X127000Y180000D02*
D03*
X80102Y126102D02*
D03*
X29000Y121000D02*
D03*
X30000Y140000D02*
D03*
Y135000D02*
D03*
Y130000D02*
D03*
X20600Y167400D02*
D03*
X17000Y144000D02*
D03*
Y148000D02*
D03*
M02*
