G04*
G04 #@! TF.GenerationSoftware,Altium Limited,Altium Designer,21.5.1 (32)*
G04*
G04 Layer_Physical_Order=2*
G04 Layer_Color=36540*
%FSLAX25Y25*%
%MOIN*%
G70*
G04*
G04 #@! TF.SameCoordinates,FA076E1F-1FF3-4579-943B-07A78E15B8C1*
G04*
G04*
G04 #@! TF.FilePolarity,Positive*
G04*
G01*
G75*
%ADD105C,0.02800*%
G36*
X161417Y60716D02*
X161367Y60695D01*
X160804Y60133D01*
X160500Y59398D01*
Y58602D01*
X160804Y57867D01*
X161367Y57305D01*
X161417Y57284D01*
Y55618D01*
X160917Y55411D01*
X160633Y55695D01*
X159898Y56000D01*
X159102D01*
X158367Y55695D01*
X157805Y55133D01*
X157500Y54398D01*
Y54058D01*
X157494Y53602D01*
X157038Y53596D01*
X156698D01*
X155963Y53291D01*
X155400Y52729D01*
X155096Y51994D01*
Y51654D01*
X155090Y51198D01*
X154634Y51192D01*
X154294D01*
X153559Y50887D01*
X152996Y50325D01*
X152692Y49589D01*
Y48794D01*
X152996Y48059D01*
X153559Y47496D01*
X154294Y47192D01*
X155089D01*
X155825Y47496D01*
X156387Y48059D01*
X156692Y48794D01*
Y49134D01*
X156698Y49590D01*
X157154Y49596D01*
X157494D01*
X158229Y49900D01*
X158791Y50463D01*
X159096Y51198D01*
Y51538D01*
X159102Y51994D01*
X159558Y52000D01*
X159898D01*
X160633Y52305D01*
X160917Y52589D01*
X161417Y52382D01*
Y24716D01*
X161367Y24696D01*
X160804Y24133D01*
X160500Y23398D01*
Y22602D01*
X160804Y21867D01*
X161367Y21305D01*
X161417Y21284D01*
Y3937D01*
X3937D01*
Y156999D01*
X8461D01*
X9040Y157115D01*
X9532Y157443D01*
X9860Y157934D01*
X9976Y158514D01*
Y160286D01*
X9860Y160866D01*
X9532Y161357D01*
X9040Y161685D01*
X8461Y161801D01*
X3937D01*
Y183191D01*
X8264D01*
X8844Y183307D01*
X9335Y183635D01*
X9663Y184127D01*
X9779Y184706D01*
Y186478D01*
X9663Y187058D01*
X9335Y187549D01*
X8844Y187878D01*
X8264Y187993D01*
X3937D01*
Y196850D01*
X161417D01*
Y60716D01*
D02*
G37*
G36*
X172000Y130000D02*
Y129602D01*
X172304Y128867D01*
X172867Y128305D01*
X172999Y128250D01*
Y127750D01*
X172867Y127696D01*
X172304Y127133D01*
X172000Y126398D01*
Y125602D01*
X172304Y124867D01*
X172867Y124304D01*
X173602Y124000D01*
X174398D01*
X175133Y124304D01*
X175696Y124867D01*
X176000Y125602D01*
Y126398D01*
X175696Y127133D01*
X175133Y127696D01*
X175001Y127750D01*
Y128250D01*
X175133Y128305D01*
X175696Y128867D01*
X176000Y129602D01*
Y130000D01*
X186000D01*
Y129602D01*
X186304Y128867D01*
X186867Y128305D01*
X186999Y128250D01*
Y127750D01*
X186867Y127696D01*
X186304Y127133D01*
X186000Y126398D01*
Y125602D01*
X186304Y124867D01*
X186867Y124304D01*
X187602Y124000D01*
X188398D01*
X189133Y124304D01*
X189696Y124867D01*
X190000Y125602D01*
Y126398D01*
X189696Y127133D01*
X189133Y127696D01*
X189001Y127750D01*
Y128250D01*
X189133Y128305D01*
X189696Y128867D01*
X190000Y129602D01*
Y130000D01*
X242464Y130000D01*
X242672Y129500D01*
X242304Y129133D01*
X242000Y128398D01*
Y127602D01*
X242304Y126867D01*
X242867Y126304D01*
X243602Y126000D01*
X244398D01*
X245133Y126304D01*
X245695Y126867D01*
X246000Y127602D01*
Y128398D01*
X245695Y129133D01*
X245328Y129500D01*
X245536Y130000D01*
X270000D01*
X270000Y4000D01*
X164000Y4000D01*
Y21672D01*
X164196Y21867D01*
X164500Y22602D01*
Y23398D01*
X164196Y24133D01*
X164000Y24328D01*
Y57672D01*
X164196Y57867D01*
X164500Y58602D01*
Y59398D01*
X164196Y60133D01*
X164000Y60328D01*
Y130000D01*
X172000D01*
D02*
G37*
%LPC*%
G36*
X52398Y186500D02*
X51602D01*
X50867Y186196D01*
X50305Y185633D01*
X50000Y184898D01*
Y184102D01*
X50305Y183367D01*
X50867Y182805D01*
X51602Y182500D01*
X52398D01*
X53133Y182805D01*
X53695Y183367D01*
X54000Y184102D01*
Y184898D01*
X53695Y185633D01*
X53133Y186196D01*
X52398Y186500D01*
D02*
G37*
G36*
X46154Y185000D02*
X45358D01*
X44623Y184695D01*
X44060Y184133D01*
X43756Y183398D01*
Y182602D01*
X44060Y181867D01*
X44623Y181305D01*
X45358Y181000D01*
X46154D01*
X46889Y181305D01*
X47451Y181867D01*
X47756Y182602D01*
Y183398D01*
X47451Y184133D01*
X46889Y184695D01*
X46154Y185000D01*
D02*
G37*
G36*
X127398Y182000D02*
X126602D01*
X125867Y181695D01*
X125304Y181133D01*
X125000Y180398D01*
Y179602D01*
X125304Y178867D01*
X125867Y178305D01*
X126602Y178000D01*
X127398D01*
X128133Y178305D01*
X128695Y178867D01*
X129000Y179602D01*
Y180398D01*
X128695Y181133D01*
X128133Y181695D01*
X127398Y182000D01*
D02*
G37*
G36*
X37972Y174372D02*
X37028D01*
X36157Y174011D01*
X35489Y173343D01*
X35128Y172472D01*
Y171528D01*
X35489Y170657D01*
X36157Y169989D01*
X37028Y169628D01*
X37972D01*
X38843Y169989D01*
X39511Y170657D01*
X39872Y171528D01*
Y172472D01*
X39511Y173343D01*
X38843Y174011D01*
X37972Y174372D01*
D02*
G37*
G36*
X20998Y169400D02*
X20202D01*
X19467Y169096D01*
X18904Y168533D01*
X18600Y167798D01*
Y167002D01*
X18904Y166267D01*
X19467Y165705D01*
X20202Y165400D01*
X20998D01*
X21733Y165705D01*
X22296Y166267D01*
X22600Y167002D01*
Y167798D01*
X22296Y168533D01*
X21733Y169096D01*
X20998Y169400D01*
D02*
G37*
G36*
X119398Y169000D02*
X118602D01*
X117867Y168695D01*
X117305Y168133D01*
X117000Y167398D01*
Y166602D01*
X117305Y165867D01*
X117867Y165305D01*
X118602Y165000D01*
X119398D01*
X120133Y165305D01*
X120695Y165867D01*
X121000Y166602D01*
Y167398D01*
X120695Y168133D01*
X120133Y168695D01*
X119398Y169000D01*
D02*
G37*
G36*
X65916Y167018D02*
X65120D01*
X64385Y166713D01*
X63822Y166151D01*
X63518Y165416D01*
Y164620D01*
X63822Y163885D01*
X64385Y163322D01*
X65120Y163018D01*
X65916D01*
X66651Y163322D01*
X67213Y163885D01*
X67518Y164620D01*
Y165416D01*
X67213Y166151D01*
X66651Y166713D01*
X65916Y167018D01*
D02*
G37*
G36*
X22898Y164500D02*
X22102D01*
X21367Y164196D01*
X20805Y163633D01*
X20500Y162898D01*
Y162102D01*
X20805Y161367D01*
X21367Y160804D01*
X22102Y160500D01*
X22898D01*
X23633Y160804D01*
X24195Y161367D01*
X24500Y162102D01*
Y162898D01*
X24195Y163633D01*
X23633Y164196D01*
X22898Y164500D01*
D02*
G37*
G36*
X82343Y163945D02*
X81547D01*
X80812Y163640D01*
X80249Y163078D01*
X79945Y162343D01*
Y161547D01*
X80249Y160812D01*
X80812Y160249D01*
X81547Y159945D01*
X82343D01*
X83078Y160249D01*
X83640Y160812D01*
X83945Y161547D01*
Y162343D01*
X83640Y163078D01*
X83078Y163640D01*
X82343Y163945D01*
D02*
G37*
G36*
X111413Y162987D02*
X110617D01*
X109882Y162682D01*
X109319Y162120D01*
X109015Y161385D01*
Y160589D01*
X109319Y159854D01*
X109882Y159291D01*
X110617Y158987D01*
X111413D01*
X112148Y159291D01*
X112711Y159854D01*
X113015Y160589D01*
Y161385D01*
X112711Y162120D01*
X112148Y162682D01*
X111413Y162987D01*
D02*
G37*
G36*
X154298Y161000D02*
X153502D01*
X152767Y160696D01*
X152205Y160133D01*
X151900Y159398D01*
Y158602D01*
X152205Y157867D01*
X152767Y157305D01*
X153502Y157000D01*
X154298D01*
X155033Y157305D01*
X155596Y157867D01*
X155900Y158602D01*
Y159398D01*
X155596Y160133D01*
X155033Y160696D01*
X154298Y161000D01*
D02*
G37*
G36*
X137398Y159000D02*
X136602D01*
X135867Y158695D01*
X135304Y158133D01*
X135000Y157398D01*
Y156602D01*
X135304Y155867D01*
X135867Y155305D01*
X136602Y155000D01*
X137398D01*
X138133Y155305D01*
X138696Y155867D01*
X139000Y156602D01*
Y157398D01*
X138696Y158133D01*
X138133Y158695D01*
X137398Y159000D01*
D02*
G37*
G36*
X30398Y158000D02*
X29602D01*
X28867Y157695D01*
X28304Y157133D01*
X28000Y156398D01*
Y155602D01*
X28304Y154867D01*
X28867Y154305D01*
X29602Y154000D01*
X30398D01*
X31133Y154305D01*
X31696Y154867D01*
X32000Y155602D01*
Y156398D01*
X31696Y157133D01*
X31133Y157695D01*
X30398Y158000D01*
D02*
G37*
G36*
X41972Y154372D02*
X41028D01*
X40157Y154011D01*
X39489Y153343D01*
X39128Y152472D01*
Y151528D01*
X39489Y150657D01*
X40157Y149989D01*
X41028Y149628D01*
X41972D01*
X42843Y149989D01*
X43511Y150657D01*
X43872Y151528D01*
Y152472D01*
X43511Y153343D01*
X42843Y154011D01*
X41972Y154372D01*
D02*
G37*
G36*
X33972D02*
X33028D01*
X32157Y154011D01*
X31489Y153343D01*
X31128Y152472D01*
Y151528D01*
X31489Y150657D01*
X32157Y149989D01*
X33028Y149628D01*
X33972D01*
X34843Y149989D01*
X35511Y150657D01*
X35872Y151528D01*
Y152472D01*
X35511Y153343D01*
X34843Y154011D01*
X33972Y154372D01*
D02*
G37*
G36*
X45898Y149500D02*
X45102D01*
X44367Y149196D01*
X43804Y148633D01*
X43500Y147898D01*
Y147102D01*
X43804Y146367D01*
X44367Y145805D01*
X45102Y145500D01*
X45898D01*
X46633Y145805D01*
X47196Y146367D01*
X47500Y147102D01*
Y147898D01*
X47196Y148633D01*
X46633Y149196D01*
X45898Y149500D01*
D02*
G37*
G36*
X154298Y155000D02*
X153502D01*
X152767Y154695D01*
X152205Y154133D01*
X151900Y153398D01*
Y152602D01*
X152205Y151867D01*
X152767Y151304D01*
X152899Y151250D01*
Y150750D01*
X152767Y150696D01*
X152205Y150133D01*
X151900Y149398D01*
Y148602D01*
X152205Y147867D01*
X152767Y147304D01*
X152899Y147250D01*
Y146750D01*
X152767Y146695D01*
X152205Y146133D01*
X151900Y145398D01*
Y144602D01*
X152205Y143867D01*
X152767Y143305D01*
X153502Y143000D01*
X154298D01*
X155033Y143305D01*
X155596Y143867D01*
X155900Y144602D01*
Y145398D01*
X155596Y146133D01*
X155033Y146695D01*
X154901Y146750D01*
Y147250D01*
X155033Y147304D01*
X155596Y147867D01*
X155900Y148602D01*
Y149398D01*
X155596Y150133D01*
X155033Y150696D01*
X154901Y150750D01*
Y151250D01*
X155033Y151304D01*
X155596Y151867D01*
X155900Y152602D01*
Y153398D01*
X155596Y154133D01*
X155033Y154695D01*
X154298Y155000D01*
D02*
G37*
G36*
X79130Y146732D02*
X78334D01*
X77599Y146428D01*
X77037Y145865D01*
X76732Y145130D01*
Y144334D01*
X77037Y143599D01*
X77599Y143037D01*
X78334Y142732D01*
X79130D01*
X79865Y143037D01*
X80428Y143599D01*
X80732Y144334D01*
Y145130D01*
X80428Y145865D01*
X79865Y146428D01*
X79130Y146732D01*
D02*
G37*
G36*
X64398Y146000D02*
X63602D01*
X62867Y145695D01*
X62305Y145133D01*
X62000Y144398D01*
Y143602D01*
X62305Y142867D01*
X62867Y142305D01*
X63602Y142000D01*
X64398D01*
X65133Y142305D01*
X65696Y142867D01*
X66000Y143602D01*
Y144398D01*
X65696Y145133D01*
X65133Y145695D01*
X64398Y146000D01*
D02*
G37*
G36*
X17398Y150000D02*
X16602D01*
X15867Y149696D01*
X15304Y149133D01*
X15000Y148398D01*
Y147602D01*
X15304Y146867D01*
X15867Y146305D01*
X15999Y146250D01*
Y145750D01*
X15867Y145695D01*
X15304Y145133D01*
X15000Y144398D01*
Y143602D01*
X15304Y142867D01*
X15867Y142305D01*
X16602Y142000D01*
X17398D01*
X18133Y142305D01*
X18696Y142867D01*
X19000Y143602D01*
Y144398D01*
X18696Y145133D01*
X18133Y145695D01*
X18001Y145750D01*
Y146250D01*
X18133Y146305D01*
X18696Y146867D01*
X19000Y147602D01*
Y148398D01*
X18696Y149133D01*
X18133Y149696D01*
X17398Y150000D01*
D02*
G37*
G36*
X30398Y142000D02*
X29602D01*
X28867Y141695D01*
X28304Y141133D01*
X28000Y140398D01*
Y139602D01*
X28304Y138867D01*
X28867Y138304D01*
X29602Y138000D01*
X30398D01*
X31133Y138304D01*
X31696Y138867D01*
X32000Y139602D01*
Y140398D01*
X31696Y141133D01*
X31133Y141695D01*
X30398Y142000D01*
D02*
G37*
G36*
X79398Y140000D02*
X78602D01*
X77867Y139696D01*
X77305Y139133D01*
X77000Y138398D01*
Y137602D01*
X77305Y136867D01*
X77867Y136304D01*
X78602Y136000D01*
X79398D01*
X80133Y136304D01*
X80695Y136867D01*
X81000Y137602D01*
Y138398D01*
X80695Y139133D01*
X80133Y139696D01*
X79398Y140000D01*
D02*
G37*
G36*
X30398Y137000D02*
X29602D01*
X28867Y136696D01*
X28304Y136133D01*
X28000Y135398D01*
Y134602D01*
X28304Y133867D01*
X28867Y133305D01*
X29602Y133000D01*
X30398D01*
X31133Y133305D01*
X31696Y133867D01*
X32000Y134602D01*
Y135398D01*
X31696Y136133D01*
X31133Y136696D01*
X30398Y137000D01*
D02*
G37*
G36*
X57916Y135518D02*
X57120D01*
X56385Y135213D01*
X55822Y134651D01*
X55518Y133916D01*
Y133120D01*
X55822Y132385D01*
X56385Y131822D01*
X57120Y131518D01*
X57916D01*
X58651Y131822D01*
X59213Y132385D01*
X59518Y133120D01*
Y133916D01*
X59213Y134651D01*
X58651Y135213D01*
X57916Y135518D01*
D02*
G37*
G36*
X30398Y132000D02*
X29602D01*
X28867Y131695D01*
X28304Y131133D01*
X28000Y130398D01*
Y129602D01*
X28304Y128867D01*
X28867Y128305D01*
X29602Y128000D01*
X30398D01*
X31133Y128305D01*
X31696Y128867D01*
X32000Y129602D01*
Y130398D01*
X31696Y131133D01*
X31133Y131695D01*
X30398Y132000D01*
D02*
G37*
G36*
X84015Y129774D02*
X83219D01*
X82484Y129470D01*
X81922Y128907D01*
X81617Y128172D01*
Y128068D01*
X81117Y127846D01*
X80500Y128102D01*
X79704D01*
X78969Y127797D01*
X78406Y127235D01*
X78102Y126500D01*
Y125704D01*
X78406Y124969D01*
X78969Y124406D01*
X79704Y124102D01*
X80500D01*
X81235Y124406D01*
X81797Y124969D01*
X82102Y125704D01*
Y125808D01*
X82602Y126030D01*
X83219Y125774D01*
X84015D01*
X84750Y126078D01*
X85313Y126641D01*
X85617Y127376D01*
Y128172D01*
X85313Y128907D01*
X84750Y129470D01*
X84015Y129774D01*
D02*
G37*
G36*
X123335Y130468D02*
X122539D01*
X121804Y130164D01*
X121241Y129601D01*
X120937Y128866D01*
Y128071D01*
X121241Y127336D01*
X121804Y126773D01*
X122539Y126469D01*
X123335D01*
X124070Y126773D01*
X124633Y127336D01*
X124937Y128071D01*
Y128866D01*
X124633Y129601D01*
X124070Y130164D01*
X123335Y130468D01*
D02*
G37*
G36*
X134142Y131947D02*
X133103D01*
X132099Y131677D01*
X131199Y131158D01*
X130464Y130423D01*
X129945Y129523D01*
X129676Y128520D01*
Y127480D01*
X129945Y126477D01*
X130464Y125577D01*
X131199Y124842D01*
X132099Y124322D01*
X133103Y124054D01*
X134142D01*
X135145Y124322D01*
X136045Y124842D01*
X136780Y125577D01*
X137300Y126477D01*
X137568Y127480D01*
Y128520D01*
X137300Y129523D01*
X136780Y130423D01*
X136045Y131158D01*
X135145Y131677D01*
X134142Y131947D01*
D02*
G37*
G36*
X90726Y127828D02*
X89930D01*
X89195Y127523D01*
X88632Y126961D01*
X88328Y126226D01*
Y125430D01*
X88632Y124695D01*
X89195Y124132D01*
X89930Y123828D01*
X90726D01*
X91461Y124132D01*
X92023Y124695D01*
X92328Y125430D01*
Y126226D01*
X92023Y126961D01*
X91461Y127523D01*
X90726Y127828D01*
D02*
G37*
G36*
X52398Y125500D02*
X51602D01*
X50867Y125196D01*
X50305Y124633D01*
X50000Y123898D01*
Y123102D01*
X50305Y122367D01*
X50867Y121804D01*
X51602Y121500D01*
X52398D01*
X53133Y121804D01*
X53695Y122367D01*
X54000Y123102D01*
Y123898D01*
X53695Y124633D01*
X53133Y125196D01*
X52398Y125500D01*
D02*
G37*
G36*
X29398Y123000D02*
X28602D01*
X27867Y122696D01*
X27305Y122133D01*
X27000Y121398D01*
Y120602D01*
X27305Y119867D01*
X27867Y119305D01*
X28602Y119000D01*
X29398D01*
X30133Y119305D01*
X30696Y119867D01*
X31000Y120602D01*
Y121398D01*
X30696Y122133D01*
X30133Y122696D01*
X29398Y123000D01*
D02*
G37*
G36*
X65398Y120000D02*
X64602D01*
X63867Y119695D01*
X63305Y119133D01*
X63000Y118398D01*
Y117602D01*
X63305Y116867D01*
X63867Y116305D01*
X64602Y116000D01*
X65398D01*
X66133Y116305D01*
X66695Y116867D01*
X67000Y117602D01*
Y118398D01*
X66695Y119133D01*
X66133Y119695D01*
X65398Y120000D01*
D02*
G37*
G36*
X86898Y118000D02*
X86102D01*
X85367Y117695D01*
X84804Y117133D01*
X84500Y116398D01*
Y115602D01*
X84804Y114867D01*
X85367Y114304D01*
X86102Y114000D01*
X86898D01*
X87633Y114304D01*
X88196Y114867D01*
X88500Y115602D01*
Y116398D01*
X88196Y117133D01*
X87633Y117695D01*
X86898Y118000D01*
D02*
G37*
G36*
X126398Y116000D02*
X125602D01*
X124867Y115696D01*
X124304Y115133D01*
X124000Y114398D01*
Y113602D01*
X124304Y112867D01*
X124867Y112304D01*
X125602Y112000D01*
X126398D01*
X127133Y112304D01*
X127696Y112867D01*
X128000Y113602D01*
Y114398D01*
X127696Y115133D01*
X127133Y115696D01*
X126398Y116000D01*
D02*
G37*
G36*
X46398Y109000D02*
X45602D01*
X44867Y108695D01*
X44304Y108133D01*
X44000Y107398D01*
Y106602D01*
X44304Y105867D01*
X44867Y105305D01*
X45602Y105000D01*
X46398D01*
X47133Y105305D01*
X47695Y105867D01*
X48000Y106602D01*
Y107398D01*
X47695Y108133D01*
X47133Y108695D01*
X46398Y109000D01*
D02*
G37*
G36*
X21349Y112801D02*
X20258D01*
X19204Y112518D01*
X18259Y111973D01*
X17488Y111202D01*
X16942Y110257D01*
X16660Y109203D01*
Y108112D01*
X16942Y107058D01*
X17488Y106113D01*
X18259Y105342D01*
X19204Y104797D01*
X20258Y104514D01*
X21349D01*
X22402Y104797D01*
X23347Y105342D01*
X24119Y106113D01*
X24664Y107058D01*
X24946Y108112D01*
Y109203D01*
X24664Y110257D01*
X24119Y111202D01*
X23347Y111973D01*
X22402Y112518D01*
X21349Y112801D01*
D02*
G37*
G36*
X145520Y111946D02*
X144480D01*
X143477Y111678D01*
X142577Y111158D01*
X141842Y110423D01*
X141323Y109523D01*
X141053Y108520D01*
Y107480D01*
X141323Y106477D01*
X141842Y105577D01*
X142577Y104842D01*
X143477Y104323D01*
X144480Y104053D01*
X145520D01*
X146523Y104323D01*
X147423Y104842D01*
X148158Y105577D01*
X148678Y106477D01*
X148946Y107480D01*
Y108520D01*
X148678Y109523D01*
X148158Y110423D01*
X147423Y111158D01*
X146523Y111678D01*
X145520Y111946D01*
D02*
G37*
G36*
X90112Y105714D02*
X89317D01*
X88582Y105410D01*
X88019Y104847D01*
X87714Y104112D01*
Y103317D01*
X88019Y102582D01*
X88582Y102019D01*
X89317Y101715D01*
X90112D01*
X90847Y102019D01*
X91410Y102582D01*
X91715Y103317D01*
Y104112D01*
X91410Y104847D01*
X90847Y105410D01*
X90112Y105714D01*
D02*
G37*
G36*
X11416Y106876D02*
X10584D01*
X9781Y106660D01*
X9060Y106244D01*
X8472Y105656D01*
X8056Y104936D01*
X7841Y104132D01*
Y103301D01*
X8056Y102497D01*
X8472Y101777D01*
X9060Y101189D01*
X9781Y100773D01*
X10584Y100557D01*
X11416D01*
X12219Y100773D01*
X12940Y101189D01*
X13528Y101777D01*
X13944Y102497D01*
X14159Y103301D01*
Y104132D01*
X13944Y104936D01*
X13528Y105656D01*
X12940Y106244D01*
X12219Y106660D01*
X11416Y106876D01*
D02*
G37*
G36*
X113898Y102500D02*
X113102D01*
X112367Y102196D01*
X111804Y101633D01*
X111500Y100898D01*
Y100102D01*
X111804Y99367D01*
X112367Y98804D01*
X113102Y98500D01*
X113898D01*
X114633Y98804D01*
X115196Y99367D01*
X115500Y100102D01*
Y100898D01*
X115196Y101633D01*
X114633Y102196D01*
X113898Y102500D01*
D02*
G37*
G36*
X91260Y96138D02*
X90464D01*
X89729Y95833D01*
X89362Y95466D01*
X88995Y95833D01*
X88260Y96138D01*
X87464D01*
X86729Y95833D01*
X86167Y95271D01*
X85862Y94536D01*
Y93740D01*
X86167Y93005D01*
X86729Y92442D01*
X87464Y92138D01*
X88260D01*
X88995Y92442D01*
X89362Y92809D01*
X89729Y92442D01*
X90464Y92138D01*
X91260D01*
X91995Y92442D01*
X92558Y93005D01*
X92862Y93740D01*
Y94536D01*
X92558Y95271D01*
X91995Y95833D01*
X91260Y96138D01*
D02*
G37*
G36*
X148398Y92000D02*
X147602D01*
X146867Y91695D01*
X146305Y91133D01*
X146000Y90398D01*
Y89602D01*
X146305Y88867D01*
X146867Y88305D01*
X147602Y88000D01*
X148208D01*
X148528Y87624D01*
X148558Y87538D01*
X148500Y87398D01*
Y86602D01*
X148804Y85867D01*
X149367Y85304D01*
X150102Y85000D01*
X150898D01*
X151633Y85304D01*
X152196Y85867D01*
X152500Y86602D01*
Y87398D01*
X152196Y88133D01*
X151633Y88696D01*
X150898Y89000D01*
X150292D01*
X149972Y89376D01*
X149942Y89462D01*
X150000Y89602D01*
Y90398D01*
X149696Y91133D01*
X149133Y91695D01*
X148398Y92000D01*
D02*
G37*
G36*
X134142Y91947D02*
X133103D01*
X132099Y91677D01*
X131199Y91158D01*
X130464Y90423D01*
X129945Y89523D01*
X129676Y88520D01*
Y87480D01*
X129945Y86477D01*
X130464Y85577D01*
X131199Y84842D01*
X132099Y84323D01*
X133103Y84053D01*
X134142D01*
X135145Y84323D01*
X136045Y84842D01*
X136780Y85577D01*
X137300Y86477D01*
X137568Y87480D01*
Y88520D01*
X137300Y89523D01*
X136780Y90423D01*
X136045Y91158D01*
X135145Y91677D01*
X134142Y91947D01*
D02*
G37*
G36*
X11416Y89159D02*
X10584D01*
X9781Y88944D01*
X9060Y88528D01*
X8472Y87940D01*
X8056Y87219D01*
X7841Y86416D01*
Y85584D01*
X8056Y84781D01*
X8472Y84060D01*
X9060Y83472D01*
X9781Y83056D01*
X10584Y82841D01*
X11416D01*
X12219Y83056D01*
X12940Y83472D01*
X13528Y84060D01*
X13944Y84781D01*
X14159Y85584D01*
Y86416D01*
X13944Y87219D01*
X13528Y87940D01*
X12940Y88528D01*
X12219Y88944D01*
X11416Y89159D01*
D02*
G37*
G36*
X74398Y83000D02*
X73602D01*
X72867Y82696D01*
X72304Y82133D01*
X72000Y81398D01*
Y80602D01*
X72304Y79867D01*
X72867Y79304D01*
X73602Y79000D01*
X74398D01*
X75133Y79304D01*
X75696Y79867D01*
X76000Y80602D01*
Y81398D01*
X75696Y82133D01*
X75133Y82696D01*
X74398Y83000D01*
D02*
G37*
G36*
X64398D02*
X63602D01*
X62867Y82696D01*
X62305Y82133D01*
X62000Y81398D01*
Y80602D01*
X62305Y79867D01*
X62867Y79304D01*
X63602Y79000D01*
X64398D01*
X65133Y79304D01*
X65696Y79867D01*
X66000Y80602D01*
Y81398D01*
X65696Y82133D01*
X65133Y82696D01*
X64398Y83000D01*
D02*
G37*
G36*
X100898Y82500D02*
X100102D01*
X99367Y82196D01*
X98804Y81633D01*
X98500Y80898D01*
Y80102D01*
X98804Y79367D01*
X99367Y78804D01*
X100102Y78500D01*
X100898D01*
X101633Y78804D01*
X102196Y79367D01*
X102500Y80102D01*
Y80898D01*
X102196Y81633D01*
X101633Y82196D01*
X100898Y82500D01*
D02*
G37*
G36*
X126398Y78000D02*
X125602D01*
X124867Y77696D01*
X124304Y77133D01*
X124250Y77001D01*
X123750D01*
X123696Y77133D01*
X123133Y77696D01*
X122398Y78000D01*
X121602D01*
X120867Y77696D01*
X120305Y77133D01*
X120250Y77001D01*
X119750D01*
X119695Y77133D01*
X119133Y77696D01*
X118398Y78000D01*
X117602D01*
X116867Y77696D01*
X116305Y77133D01*
X116000Y76398D01*
Y75602D01*
X116305Y74867D01*
X116867Y74304D01*
X117602Y74000D01*
X118398D01*
X119133Y74304D01*
X119695Y74867D01*
X119750Y74999D01*
X120250D01*
X120305Y74867D01*
X120867Y74304D01*
X121602Y74000D01*
X122398D01*
X123133Y74304D01*
X123696Y74867D01*
X123750Y74999D01*
X124250D01*
X124304Y74867D01*
X124867Y74304D01*
X125602Y74000D01*
X126398D01*
X127133Y74304D01*
X127613Y74209D01*
X127622Y74185D01*
X128185Y73623D01*
X128920Y73318D01*
X129716D01*
X130451Y73623D01*
X131014Y74185D01*
X131318Y74920D01*
Y75716D01*
X131014Y76451D01*
X130451Y77013D01*
X129716Y77318D01*
X128920D01*
X128185Y77013D01*
X127705Y77109D01*
X127696Y77133D01*
X127133Y77696D01*
X126398Y78000D01*
D02*
G37*
G36*
X21349Y85202D02*
X20258D01*
X19204Y84920D01*
X18259Y84374D01*
X17488Y83603D01*
X16942Y82658D01*
X16660Y81604D01*
Y80514D01*
X16942Y79460D01*
X17488Y78515D01*
X18259Y77744D01*
X19204Y77198D01*
X20258Y76916D01*
X21349D01*
X22402Y77198D01*
X23347Y77744D01*
X24119Y78515D01*
X24664Y79460D01*
X24946Y80514D01*
Y81604D01*
X24664Y82658D01*
X24119Y83603D01*
X23347Y84374D01*
X22402Y84920D01*
X21349Y85202D01*
D02*
G37*
G36*
X77536Y73862D02*
X76740D01*
X76005Y73558D01*
X75442Y72995D01*
X75138Y72260D01*
Y71464D01*
X75442Y70729D01*
X76005Y70167D01*
X76740Y69862D01*
X77536D01*
X78271Y70167D01*
X78833Y70729D01*
X79138Y71464D01*
Y72260D01*
X78833Y72995D01*
X78271Y73558D01*
X77536Y73862D01*
D02*
G37*
G36*
X105398Y70000D02*
X104602D01*
X103867Y69696D01*
X103305Y69133D01*
X103000Y68398D01*
Y67602D01*
X103305Y66867D01*
X103867Y66304D01*
X104602Y66000D01*
X105398D01*
X106133Y66304D01*
X106695Y66867D01*
X107000Y67602D01*
Y68398D01*
X106695Y69133D01*
X106133Y69696D01*
X105398Y70000D01*
D02*
G37*
G36*
X90398Y69000D02*
X89602D01*
X88867Y68695D01*
X88305Y68133D01*
X88000Y67398D01*
Y66602D01*
X88305Y65867D01*
X88867Y65304D01*
X89602Y65000D01*
X90398D01*
X91133Y65304D01*
X91695Y65867D01*
X92000Y66602D01*
Y67398D01*
X91695Y68133D01*
X91133Y68695D01*
X90398Y69000D01*
D02*
G37*
G36*
X130398Y60000D02*
X129602D01*
X128867Y59696D01*
X128305Y59133D01*
X128250Y59001D01*
X127750D01*
X127696Y59133D01*
X127133Y59696D01*
X126398Y60000D01*
X125602D01*
X124867Y59696D01*
X124304Y59133D01*
X124250Y59001D01*
X123750D01*
X123696Y59133D01*
X123133Y59696D01*
X122398Y60000D01*
X121602D01*
X120867Y59696D01*
X120305Y59133D01*
X120250Y59001D01*
X119750D01*
X119695Y59133D01*
X119133Y59696D01*
X118398Y60000D01*
X117602D01*
X116867Y59696D01*
X116305Y59133D01*
X116000Y58398D01*
Y57602D01*
X116305Y56867D01*
X116867Y56305D01*
X117602Y56000D01*
X118398D01*
X119133Y56305D01*
X119695Y56867D01*
X119750Y56999D01*
X120250D01*
X120305Y56867D01*
X120867Y56305D01*
X121602Y56000D01*
X122398D01*
X123133Y56305D01*
X123696Y56867D01*
X123750Y56999D01*
X124250D01*
X124304Y56867D01*
X124867Y56305D01*
X125602Y56000D01*
X126398D01*
X127133Y56305D01*
X127696Y56867D01*
X127750Y56999D01*
X128250D01*
X128305Y56867D01*
X128867Y56305D01*
X129602Y56000D01*
X130398D01*
X131133Y56305D01*
X131695Y56867D01*
X132000Y57602D01*
Y58398D01*
X131695Y59133D01*
X131133Y59696D01*
X130398Y60000D01*
D02*
G37*
G36*
X21689Y71998D02*
X20311D01*
X18959Y71729D01*
X17685Y71201D01*
X16539Y70435D01*
X15565Y69461D01*
X14799Y68315D01*
X14271Y67041D01*
X14002Y65689D01*
Y64311D01*
X14271Y62959D01*
X14799Y61685D01*
X15565Y60539D01*
X16539Y59565D01*
X17685Y58799D01*
X18959Y58271D01*
X20311Y58002D01*
X21689D01*
X23041Y58271D01*
X24315Y58799D01*
X25461Y59565D01*
X26435Y60539D01*
X27201Y61685D01*
X27729Y62959D01*
X27998Y64311D01*
Y65689D01*
X27729Y67041D01*
X27201Y68315D01*
X26435Y69461D01*
X25461Y70435D01*
X24315Y71201D01*
X23041Y71729D01*
X21689Y71998D01*
D02*
G37*
G36*
X77760Y60862D02*
X76964D01*
X76229Y60558D01*
X75667Y59995D01*
X75362Y59260D01*
Y58464D01*
X75667Y57729D01*
X76229Y57167D01*
X76964Y56862D01*
X77760D01*
X78495Y57167D01*
X79058Y57729D01*
X79362Y58464D01*
Y59260D01*
X79058Y59995D01*
X78495Y60558D01*
X77760Y60862D01*
D02*
G37*
G36*
X46416Y60659D02*
X45584D01*
X44781Y60444D01*
X44060Y60028D01*
X43472Y59440D01*
X43056Y58719D01*
X42841Y57916D01*
Y57084D01*
X43056Y56281D01*
X43472Y55560D01*
X44060Y54972D01*
X44781Y54556D01*
X45584Y54341D01*
X46416D01*
X47219Y54556D01*
X47940Y54972D01*
X48528Y55560D01*
X48944Y56281D01*
X49159Y57084D01*
Y57916D01*
X48944Y58719D01*
X48528Y59440D01*
X47940Y60028D01*
X47219Y60444D01*
X46416Y60659D01*
D02*
G37*
G36*
X56416Y55659D02*
X55584D01*
X54781Y55444D01*
X54060Y55028D01*
X53472Y54440D01*
X53056Y53719D01*
X52841Y52916D01*
Y52084D01*
X53056Y51281D01*
X53472Y50560D01*
X54060Y49972D01*
X54781Y49556D01*
X55584Y49341D01*
X56416D01*
X57219Y49556D01*
X57940Y49972D01*
X58528Y50560D01*
X58944Y51281D01*
X59159Y52084D01*
Y52916D01*
X58944Y53719D01*
X58528Y54440D01*
X57940Y55028D01*
X57219Y55444D01*
X56416Y55659D01*
D02*
G37*
G36*
X46416Y50659D02*
X45584D01*
X44781Y50444D01*
X44060Y50028D01*
X43472Y49440D01*
X43056Y48719D01*
X42841Y47916D01*
Y47084D01*
X43056Y46281D01*
X43472Y45560D01*
X44060Y44972D01*
X44781Y44556D01*
X45584Y44341D01*
X46416D01*
X47219Y44556D01*
X47940Y44972D01*
X48528Y45560D01*
X48944Y46281D01*
X49159Y47084D01*
Y47916D01*
X48944Y48719D01*
X48528Y49440D01*
X47940Y50028D01*
X47219Y50444D01*
X46416Y50659D01*
D02*
G37*
G36*
X56416Y45659D02*
X55584D01*
X54781Y45444D01*
X54060Y45028D01*
X53472Y44440D01*
X53056Y43719D01*
X52841Y42916D01*
Y42084D01*
X53056Y41281D01*
X53472Y40560D01*
X54060Y39972D01*
X54781Y39556D01*
X55584Y39341D01*
X56416D01*
X57219Y39556D01*
X57940Y39972D01*
X58528Y40560D01*
X58944Y41281D01*
X59159Y42084D01*
Y42916D01*
X58944Y43719D01*
X58528Y44440D01*
X57940Y45028D01*
X57219Y45444D01*
X56416Y45659D01*
D02*
G37*
G36*
X63398Y34000D02*
X62602D01*
X61867Y33696D01*
X61304Y33133D01*
X61000Y32398D01*
Y31602D01*
X61304Y30867D01*
X61867Y30305D01*
X62602Y30000D01*
X63398D01*
X64133Y30305D01*
X64696Y30867D01*
X65000Y31602D01*
Y32398D01*
X64696Y33133D01*
X64133Y33696D01*
X63398Y34000D01*
D02*
G37*
G36*
X21689Y41998D02*
X20311D01*
X18959Y41729D01*
X17685Y41201D01*
X16539Y40435D01*
X15565Y39461D01*
X14799Y38315D01*
X14271Y37041D01*
X14002Y35689D01*
Y34311D01*
X14271Y32959D01*
X14799Y31685D01*
X15565Y30539D01*
X16539Y29565D01*
X17685Y28799D01*
X18959Y28271D01*
X20311Y28002D01*
X21689D01*
X23041Y28271D01*
X24315Y28799D01*
X25461Y29565D01*
X26435Y30539D01*
X27201Y31685D01*
X27729Y32959D01*
X27998Y34311D01*
Y35689D01*
X27729Y37041D01*
X27201Y38315D01*
X26435Y39461D01*
X25461Y40435D01*
X24315Y41201D01*
X23041Y41729D01*
X21689Y41998D01*
D02*
G37*
G36*
X99925Y28528D02*
X99130D01*
X98395Y28223D01*
X97832Y27661D01*
X97528Y26925D01*
Y26130D01*
X97832Y25395D01*
X98395Y24832D01*
X99130Y24528D01*
X99925D01*
X100661Y24832D01*
X101223Y25395D01*
X101528Y26130D01*
Y26925D01*
X101223Y27661D01*
X100661Y28223D01*
X99925Y28528D01*
D02*
G37*
G36*
X137142Y14000D02*
X136346D01*
X135611Y13695D01*
X135049Y13133D01*
X134744Y12398D01*
Y11602D01*
X135049Y10867D01*
X135611Y10305D01*
X136346Y10000D01*
X137142D01*
X137877Y10305D01*
X138440Y10867D01*
X138744Y11602D01*
Y12398D01*
X138440Y13133D01*
X137877Y13695D01*
X137142Y14000D01*
D02*
G37*
G36*
X254398Y86000D02*
X253602D01*
X252867Y85695D01*
X252305Y85133D01*
X252250Y85001D01*
X251750D01*
X251695Y85133D01*
X251133Y85695D01*
X250398Y86000D01*
X249602D01*
X248867Y85695D01*
X248305Y85133D01*
X248250Y85001D01*
X247750D01*
X247695Y85133D01*
X247133Y85695D01*
X246398Y86000D01*
X245602D01*
X244867Y85695D01*
X244304Y85133D01*
X244250Y85001D01*
X243750D01*
X243695Y85133D01*
X243133Y85695D01*
X242398Y86000D01*
X241602D01*
X240867Y85695D01*
X240304Y85133D01*
X240000Y84398D01*
Y83602D01*
X240304Y82867D01*
X240867Y82305D01*
X240999Y82250D01*
Y81750D01*
X240867Y81695D01*
X240304Y81133D01*
X240000Y80398D01*
Y79602D01*
X240304Y78867D01*
X240867Y78304D01*
X240999Y78250D01*
Y77750D01*
X240867Y77696D01*
X240304Y77133D01*
X240000Y76398D01*
Y75602D01*
X240304Y74867D01*
X240867Y74304D01*
X240999Y74250D01*
Y73750D01*
X240867Y73695D01*
X240304Y73133D01*
X240000Y72398D01*
Y71602D01*
X240304Y70867D01*
X240672Y70500D01*
X240644Y70301D01*
X240505Y69960D01*
X239867Y69696D01*
X239304Y69133D01*
X239000Y68398D01*
Y67602D01*
X239304Y66867D01*
X239867Y66304D01*
X240602Y66000D01*
X241398D01*
X242133Y66304D01*
X242623Y66795D01*
X243047Y66512D01*
X243000Y66398D01*
Y65602D01*
X243304Y64867D01*
X243867Y64305D01*
X244602Y64000D01*
X245398D01*
X246133Y64305D01*
X246423Y64595D01*
X246750Y64828D01*
X247077Y64595D01*
X247367Y64305D01*
X248102Y64000D01*
X248898D01*
X249633Y64305D01*
X250196Y64867D01*
X250250Y64999D01*
X250750D01*
X250804Y64867D01*
X251367Y64305D01*
X252102Y64000D01*
X252898D01*
X253633Y64305D01*
X253923Y64595D01*
X254250Y64828D01*
X254577Y64595D01*
X254867Y64305D01*
X255602Y64000D01*
X256398D01*
X257133Y64305D01*
X257423Y64595D01*
X257750Y64828D01*
X258077Y64595D01*
X258367Y64305D01*
X259102Y64000D01*
X259898D01*
X260633Y64305D01*
X261195Y64867D01*
X261500Y65602D01*
Y66398D01*
X261453Y66512D01*
X261877Y66795D01*
X262367Y66304D01*
X263102Y66000D01*
X263898D01*
X264633Y66304D01*
X265195Y66867D01*
X265500Y67602D01*
Y68398D01*
X265345Y68773D01*
X265727Y69155D01*
X266102Y69000D01*
X266898D01*
X267633Y69305D01*
X268196Y69867D01*
X268500Y70602D01*
Y71398D01*
X268196Y72133D01*
X267731Y72597D01*
X267747Y73014D01*
X267801Y73167D01*
X268133Y73304D01*
X268695Y73867D01*
X269000Y74602D01*
Y75398D01*
X268695Y76133D01*
X268405Y76423D01*
X268172Y76750D01*
X268405Y77077D01*
X268695Y77367D01*
X269000Y78102D01*
Y78898D01*
X268695Y79633D01*
X268133Y80195D01*
X267398Y80500D01*
X266602D01*
X265867Y80195D01*
X265304Y79633D01*
X265000Y78898D01*
Y78102D01*
X265304Y77367D01*
X265595Y77077D01*
X265828Y76750D01*
X265595Y76423D01*
X265304Y76133D01*
X265000Y75398D01*
Y74602D01*
X265304Y73867D01*
X265769Y73403D01*
X265753Y72986D01*
X265699Y72833D01*
X265367Y72695D01*
X264805Y72133D01*
X264500Y71398D01*
Y70602D01*
X264655Y70227D01*
X264272Y69845D01*
X263898Y70000D01*
X263102D01*
X262367Y69696D01*
X261805Y69133D01*
X261500Y68398D01*
Y67602D01*
X261547Y67488D01*
X261123Y67205D01*
X260633Y67695D01*
X259898Y68000D01*
X259102D01*
X258367Y67695D01*
X258077Y67405D01*
X257750Y67172D01*
X257423Y67405D01*
X257133Y67695D01*
X256398Y68000D01*
X255602D01*
X254867Y67695D01*
X254577Y67405D01*
X254250Y67172D01*
X253923Y67405D01*
X253633Y67695D01*
X252898Y68000D01*
X252102D01*
X251367Y67695D01*
X250804Y67133D01*
X250750Y67001D01*
X250250D01*
X250196Y67133D01*
X249633Y67695D01*
X248898Y68000D01*
X248102D01*
X247367Y67695D01*
X247077Y67405D01*
X246750Y67172D01*
X246423Y67405D01*
X246133Y67695D01*
X245398Y68000D01*
X244602D01*
X243867Y67695D01*
X243377Y67205D01*
X242953Y67488D01*
X243000Y67602D01*
Y68398D01*
X242695Y69133D01*
X242328Y69500D01*
X242356Y69699D01*
X242495Y70040D01*
X243133Y70305D01*
X243695Y70867D01*
X243750Y70999D01*
X244250D01*
X244304Y70867D01*
X244867Y70305D01*
X245602Y70000D01*
X246398D01*
X247133Y70305D01*
X247695Y70867D01*
X248000Y71602D01*
Y72398D01*
X247695Y73133D01*
X247133Y73695D01*
X247001Y73750D01*
Y74250D01*
X247133Y74304D01*
X247695Y74867D01*
X248000Y75602D01*
Y76398D01*
X247695Y77133D01*
X247133Y77696D01*
X247001Y77750D01*
Y78250D01*
X247133Y78304D01*
X247695Y78867D01*
X247750Y78999D01*
X248250D01*
X248305Y78867D01*
X248867Y78304D01*
X249602Y78000D01*
X250398D01*
X251133Y78304D01*
X251695Y78867D01*
X251750Y78999D01*
X252250D01*
X252305Y78867D01*
X252867Y78304D01*
X253602Y78000D01*
X254398D01*
X255133Y78304D01*
X255696Y78867D01*
X256000Y79602D01*
Y80398D01*
X255696Y81133D01*
X255133Y81695D01*
X255001Y81750D01*
Y82250D01*
X255133Y82305D01*
X255696Y82867D01*
X256000Y83602D01*
Y84398D01*
X255696Y85133D01*
X255133Y85695D01*
X254398Y86000D01*
D02*
G37*
G36*
X211898Y86013D02*
X211102D01*
X210367Y85708D01*
X209805Y85146D01*
X209500Y84411D01*
Y83615D01*
X209805Y82880D01*
X210367Y82317D01*
X211102Y82013D01*
X211898D01*
X212633Y82317D01*
X213195Y82880D01*
X213500Y83615D01*
Y84411D01*
X213195Y85146D01*
X212633Y85708D01*
X211898Y86013D01*
D02*
G37*
G36*
X222776Y85878D02*
X221980D01*
X221245Y85574D01*
X220682Y85011D01*
X220378Y84276D01*
Y83480D01*
X220682Y82745D01*
X221245Y82182D01*
X221980Y81878D01*
X222776D01*
X223511Y82182D01*
X224074Y82745D01*
X224378Y83480D01*
Y84276D01*
X224074Y85011D01*
X223511Y85574D01*
X222776Y85878D01*
D02*
G37*
G36*
X217073Y85825D02*
X216278D01*
X215543Y85520D01*
X214980Y84957D01*
X214675Y84222D01*
Y83427D01*
X214980Y82692D01*
X215543Y82129D01*
X216278Y81825D01*
X217073D01*
X217808Y82129D01*
X218371Y82692D01*
X218675Y83427D01*
Y84222D01*
X218371Y84957D01*
X217808Y85520D01*
X217073Y85825D01*
D02*
G37*
G36*
X204898Y84500D02*
X204102D01*
X203367Y84196D01*
X202804Y83633D01*
X202500Y82898D01*
Y82102D01*
X202804Y81367D01*
X203367Y80805D01*
X204102Y80500D01*
X204898D01*
X205633Y80805D01*
X206195Y81367D01*
X206500Y82102D01*
Y82898D01*
X206195Y83633D01*
X205633Y84196D01*
X204898Y84500D01*
D02*
G37*
G36*
X192398Y78000D02*
X191602D01*
X190867Y77696D01*
X190305Y77133D01*
X190250Y77001D01*
X189750D01*
X189696Y77133D01*
X189133Y77696D01*
X188398Y78000D01*
X187602D01*
X186867Y77696D01*
X186304Y77133D01*
X186250Y77001D01*
X185750D01*
X185696Y77133D01*
X185133Y77696D01*
X184398Y78000D01*
X183602D01*
X182867Y77696D01*
X182305Y77133D01*
X182000Y76398D01*
Y75602D01*
X182305Y74867D01*
X182867Y74304D01*
X183602Y74000D01*
X184398D01*
X185133Y74304D01*
X185696Y74867D01*
X185750Y74999D01*
X186250D01*
X186304Y74867D01*
X186867Y74304D01*
X187602Y74000D01*
X188398D01*
X189133Y74304D01*
X189696Y74867D01*
X189750Y74999D01*
X190250D01*
X190305Y74867D01*
X190867Y74304D01*
X191602Y74000D01*
X192398D01*
X193133Y74304D01*
X193695Y74867D01*
X194000Y75602D01*
Y76398D01*
X193695Y77133D01*
X193133Y77696D01*
X192398Y78000D01*
D02*
G37*
G36*
X176398D02*
X175602D01*
X174867Y77696D01*
X174304Y77133D01*
X174250Y77001D01*
X173750D01*
X173696Y77133D01*
X173133Y77696D01*
X172398Y78000D01*
X171602D01*
X170867Y77696D01*
X170305Y77133D01*
X170250Y77001D01*
X169750D01*
X169695Y77133D01*
X169133Y77696D01*
X168398Y78000D01*
X167602D01*
X166867Y77696D01*
X166305Y77133D01*
X166000Y76398D01*
Y75602D01*
X166305Y74867D01*
X166867Y74304D01*
X167602Y74000D01*
X168398D01*
X169133Y74304D01*
X169695Y74867D01*
X169750Y74999D01*
X170250D01*
X170305Y74867D01*
X170867Y74304D01*
X171602Y74000D01*
X172398D01*
X173133Y74304D01*
X173696Y74867D01*
X173750Y74999D01*
X174250D01*
X174304Y74867D01*
X174867Y74304D01*
X175602Y74000D01*
X176398D01*
X177133Y74304D01*
X177696Y74867D01*
X178000Y75602D01*
Y76398D01*
X177696Y77133D01*
X177133Y77696D01*
X176398Y78000D01*
D02*
G37*
G36*
X214032Y74000D02*
X213236D01*
X212501Y73695D01*
X211938Y73133D01*
X211634Y72398D01*
Y71602D01*
X211938Y70867D01*
X212501Y70305D01*
X213236Y70000D01*
X214032D01*
X214767Y70305D01*
X215329Y70867D01*
X215634Y71602D01*
Y72398D01*
X215329Y73133D01*
X214767Y73695D01*
X214032Y74000D01*
D02*
G37*
G36*
X208130Y66268D02*
X207334D01*
X206599Y65963D01*
X206037Y65401D01*
X205732Y64666D01*
Y63870D01*
X206037Y63135D01*
X206599Y62572D01*
X207334Y62268D01*
X208130D01*
X208865Y62572D01*
X209428Y63135D01*
X209732Y63870D01*
Y64666D01*
X209428Y65401D01*
X208865Y65963D01*
X208130Y66268D01*
D02*
G37*
G36*
X229898Y60500D02*
X229102D01*
X228367Y60195D01*
X227804Y59633D01*
X227500Y58898D01*
Y58102D01*
X227804Y57367D01*
X228367Y56805D01*
X229102Y56500D01*
X229898D01*
X230633Y56805D01*
X231195Y57367D01*
X231500Y58102D01*
Y58898D01*
X231195Y59633D01*
X230633Y60195D01*
X229898Y60500D01*
D02*
G37*
G36*
X211398Y60000D02*
X210602D01*
X209867Y59696D01*
X209304Y59133D01*
X209000Y58398D01*
Y57602D01*
X209304Y56867D01*
X209867Y56305D01*
X210602Y56000D01*
X211398D01*
X212133Y56305D01*
X212696Y56867D01*
X213000Y57602D01*
Y58398D01*
X212696Y59133D01*
X212133Y59696D01*
X211398Y60000D01*
D02*
G37*
G36*
X174398Y56000D02*
X173602D01*
X172867Y55695D01*
X172304Y55133D01*
X172000Y54398D01*
Y53602D01*
X172304Y52867D01*
X172867Y52305D01*
X173602Y52000D01*
X174398D01*
X175133Y52305D01*
X175696Y52867D01*
X176000Y53602D01*
Y54398D01*
X175696Y55133D01*
X175133Y55695D01*
X174398Y56000D01*
D02*
G37*
G36*
X203712Y48986D02*
X202847D01*
X202048Y48655D01*
X201436Y48043D01*
X201364Y47870D01*
X200864D01*
X200793Y48043D01*
X200181Y48655D01*
X199381Y48986D01*
X198516D01*
X197717Y48655D01*
X197105Y48043D01*
X196774Y47244D01*
Y46378D01*
X197105Y45579D01*
X197717Y44967D01*
X197890Y44896D01*
Y44396D01*
X197717Y44324D01*
X197105Y43712D01*
X196774Y42913D01*
Y42048D01*
X197105Y41248D01*
X197717Y40637D01*
X197890Y40565D01*
Y40065D01*
X197717Y39993D01*
X197105Y39382D01*
X196774Y38582D01*
Y37717D01*
X197105Y36918D01*
X197717Y36306D01*
X197890Y36234D01*
Y35734D01*
X197717Y35663D01*
X197105Y35051D01*
X196774Y34251D01*
Y33386D01*
X197105Y32587D01*
X197717Y31975D01*
X197890Y31904D01*
Y31403D01*
X197717Y31332D01*
X197105Y30720D01*
X196774Y29921D01*
Y29056D01*
X197105Y28256D01*
X197717Y27645D01*
X197890Y27573D01*
Y27073D01*
X197717Y27001D01*
X197105Y26389D01*
X196774Y25590D01*
Y24725D01*
X197105Y23926D01*
X197717Y23314D01*
X198516Y22983D01*
X199381D01*
X200181Y23314D01*
X200793Y23926D01*
X200864Y24099D01*
X201364D01*
X201436Y23926D01*
X202048Y23314D01*
X202847Y22983D01*
X203712D01*
X204511Y23314D01*
X205123Y23926D01*
X205454Y24725D01*
Y25590D01*
X205123Y26389D01*
X204511Y27001D01*
X204339Y27073D01*
Y27573D01*
X204511Y27645D01*
X205123Y28256D01*
X205454Y29056D01*
Y29921D01*
X205123Y30720D01*
X204511Y31332D01*
X204339Y31403D01*
Y31904D01*
X204511Y31975D01*
X205123Y32587D01*
X205454Y33386D01*
Y34251D01*
X205123Y35051D01*
X204511Y35663D01*
X204339Y35734D01*
Y36234D01*
X204511Y36306D01*
X205123Y36918D01*
X205454Y37717D01*
Y38582D01*
X205123Y39382D01*
X204511Y39993D01*
X204339Y40065D01*
Y40565D01*
X204511Y40637D01*
X205123Y41248D01*
X205454Y42048D01*
Y42913D01*
X205123Y43712D01*
X204511Y44324D01*
X204339Y44396D01*
Y44896D01*
X204511Y44967D01*
X205123Y45579D01*
X205454Y46378D01*
Y47244D01*
X205123Y48043D01*
X204511Y48655D01*
X203712Y48986D01*
D02*
G37*
G36*
X229398Y50500D02*
X228602D01*
X227867Y50195D01*
X227305Y49633D01*
X227000Y48898D01*
Y48102D01*
X227305Y47367D01*
X227867Y46804D01*
X228602Y46500D01*
X229398D01*
X230133Y46804D01*
X230696Y47367D01*
X231000Y48102D01*
Y48898D01*
X230696Y49633D01*
X230133Y50195D01*
X229398Y50500D01*
D02*
G37*
G36*
X174898Y43000D02*
X174102D01*
X173367Y42696D01*
X172804Y42133D01*
X172500Y41398D01*
Y40602D01*
X172804Y39867D01*
X173367Y39305D01*
X174102Y39000D01*
X174898D01*
X175633Y39305D01*
X176196Y39867D01*
X176500Y40602D01*
Y41398D01*
X176196Y42133D01*
X175633Y42696D01*
X174898Y43000D01*
D02*
G37*
G36*
X243898Y42000D02*
X243102D01*
X242367Y41695D01*
X241805Y41133D01*
X241500Y40398D01*
Y39602D01*
X241805Y38867D01*
X242367Y38304D01*
X243102Y38000D01*
X243898D01*
X244633Y38304D01*
X245196Y38867D01*
X245500Y39602D01*
Y40398D01*
X245196Y41133D01*
X244633Y41695D01*
X243898Y42000D01*
D02*
G37*
G36*
X208852Y39214D02*
X208056D01*
X207321Y38910D01*
X206759Y38347D01*
X206454Y37612D01*
Y36816D01*
X206759Y36081D01*
X207321Y35519D01*
X208056Y35214D01*
X208852D01*
X209587Y35519D01*
X210150Y36081D01*
X210454Y36816D01*
Y37612D01*
X210150Y38347D01*
X209587Y38910D01*
X208852Y39214D01*
D02*
G37*
G36*
X228898Y36500D02*
X228102D01*
X227367Y36195D01*
X226804Y35633D01*
X226500Y34898D01*
Y34102D01*
X226804Y33367D01*
X227367Y32805D01*
X228102Y32500D01*
X228898D01*
X229633Y32805D01*
X230195Y33367D01*
X230500Y34102D01*
Y34898D01*
X230195Y35633D01*
X229633Y36195D01*
X228898Y36500D01*
D02*
G37*
G36*
X241945Y36000D02*
X241149D01*
X240414Y35695D01*
X239852Y35133D01*
X239547Y34398D01*
Y33602D01*
X239852Y32867D01*
X240414Y32304D01*
X241149Y32000D01*
X241945D01*
X242680Y32304D01*
X243243Y32867D01*
X243547Y33602D01*
Y34398D01*
X243243Y35133D01*
X242680Y35695D01*
X241945Y36000D01*
D02*
G37*
G36*
X224898Y31500D02*
X224102D01*
X223367Y31196D01*
X222804Y30633D01*
X222500Y29898D01*
Y29102D01*
X222804Y28367D01*
X223367Y27804D01*
X224102Y27500D01*
X224898D01*
X225633Y27804D01*
X226196Y28367D01*
X226500Y29102D01*
Y29898D01*
X226196Y30633D01*
X225633Y31196D01*
X224898Y31500D01*
D02*
G37*
G36*
X218498Y29028D02*
X217702D01*
X216967Y28723D01*
X216405Y28161D01*
X216100Y27425D01*
Y26630D01*
X216405Y25895D01*
X216967Y25332D01*
X217702Y25028D01*
X218498D01*
X219233Y25332D01*
X219795Y25895D01*
X220100Y26630D01*
Y27425D01*
X219795Y28161D01*
X219233Y28723D01*
X218498Y29028D01*
D02*
G37*
G36*
X222398Y26500D02*
X221602D01*
X220867Y26195D01*
X220304Y25633D01*
X220000Y24898D01*
Y24102D01*
X220304Y23367D01*
X220867Y22805D01*
X221602Y22500D01*
X222398D01*
X223133Y22805D01*
X223695Y23367D01*
X224000Y24102D01*
Y24898D01*
X223695Y25633D01*
X223133Y26195D01*
X222398Y26500D01*
D02*
G37*
G36*
X184398Y26000D02*
X183602D01*
X182867Y25695D01*
X182305Y25133D01*
X182000Y24398D01*
Y23602D01*
X182305Y22867D01*
X182867Y22305D01*
X183602Y22000D01*
X184398D01*
X185133Y22305D01*
X185696Y22867D01*
X186000Y23602D01*
Y24398D01*
X185696Y25133D01*
X185133Y25695D01*
X184398Y26000D01*
D02*
G37*
G36*
X217853Y23955D02*
X217057D01*
X216322Y23650D01*
X215759Y23088D01*
X215455Y22353D01*
Y21557D01*
X215759Y20822D01*
X216322Y20259D01*
X216385Y20233D01*
X216503Y19643D01*
X216193Y19333D01*
X215889Y18598D01*
Y17803D01*
X216193Y17068D01*
X216756Y16505D01*
X217491Y16201D01*
X218286D01*
X219021Y16505D01*
X219584Y17068D01*
X219888Y17803D01*
Y18598D01*
X219584Y19333D01*
X219021Y19896D01*
X218958Y19922D01*
X218841Y20512D01*
X219150Y20822D01*
X219455Y21557D01*
Y22353D01*
X219150Y23088D01*
X218588Y23650D01*
X217853Y23955D01*
D02*
G37*
G36*
X184398Y21276D02*
X183602D01*
X182867Y20971D01*
X182305Y20409D01*
X182000Y19674D01*
Y18878D01*
X182305Y18143D01*
X182867Y17580D01*
X183602Y17276D01*
X184398D01*
X184667Y17387D01*
X185050Y17005D01*
X185000Y16885D01*
Y16089D01*
X185304Y15354D01*
X185867Y14792D01*
X186602Y14487D01*
X187398D01*
X188133Y14792D01*
X188696Y15354D01*
X189000Y16089D01*
Y16885D01*
X188696Y17620D01*
X188133Y18183D01*
X187398Y18487D01*
X186602D01*
X186333Y18376D01*
X185950Y18758D01*
X186000Y18878D01*
Y19674D01*
X185696Y20409D01*
X185133Y20971D01*
X184398Y21276D01*
D02*
G37*
G36*
X234925Y17072D02*
X234130D01*
X233395Y16768D01*
X232832Y16205D01*
X232527Y15470D01*
Y14674D01*
X232832Y13939D01*
X233395Y13376D01*
X234130Y13072D01*
X234925D01*
X235660Y13376D01*
X236223Y13939D01*
X236527Y14674D01*
Y15470D01*
X236223Y16205D01*
X235660Y16768D01*
X234925Y17072D01*
D02*
G37*
G36*
X227885Y15500D02*
X227089D01*
X226354Y15195D01*
X225792Y14633D01*
X225487Y13898D01*
Y13102D01*
X225792Y12367D01*
X226354Y11805D01*
X227089Y11500D01*
X227885D01*
X228620Y11805D01*
X229183Y12367D01*
X229487Y13102D01*
Y13898D01*
X229183Y14633D01*
X228620Y15195D01*
X227885Y15500D01*
D02*
G37*
%LPD*%
D105*
X196000Y93000D02*
D03*
X172000Y99000D02*
D03*
X128000Y128000D02*
D03*
X187000Y65656D02*
D03*
X216500Y58500D02*
D03*
X148000Y78000D02*
D03*
X174000Y103000D02*
D03*
X97362Y98000D02*
D03*
X244007Y57993D02*
D03*
X174000Y107000D02*
D03*
X155000Y67500D02*
D03*
X174000Y111000D02*
D03*
X204000Y92500D02*
D03*
X204500Y120500D02*
D03*
X188000Y111000D02*
D03*
X213500Y106500D02*
D03*
X188000Y103000D02*
D03*
X144000Y78000D02*
D03*
X140000D02*
D03*
X130000Y34000D02*
D03*
Y38000D02*
D03*
Y42000D02*
D03*
X250000Y29650D02*
D03*
X262000D02*
D03*
X254000D02*
D03*
X246000D02*
D03*
X258000D02*
D03*
X188000Y107000D02*
D03*
X264000Y58000D02*
D03*
X260000D02*
D03*
X256000D02*
D03*
X252000D02*
D03*
X248000D02*
D03*
X77638Y53138D02*
D03*
X26482Y170018D02*
D03*
X78929Y134374D02*
D03*
X104500Y167000D02*
D03*
X74862Y167638D02*
D03*
M02*
