G04*
G04 #@! TF.GenerationSoftware,Altium Limited,Altium Designer,21.5.1 (32)*
G04*
G04 Layer_Physical_Order=4*
G04 Layer_Color=16711680*
%FSLAX25Y25*%
%MOIN*%
G70*
G04*
G04 #@! TF.SameCoordinates,FA076E1F-1FF3-4579-943B-07A78E15B8C1*
G04*
G04*
G04 #@! TF.FilePolarity,Positive*
G04*
G01*
G75*
%ADD10C,0.01000*%
%ADD92C,0.03347*%
%ADD96C,0.03150*%
%ADD99C,0.02500*%
%ADD100C,0.06693*%
%ADD101P,0.05540X8X112.5*%
%ADD102C,0.05118*%
%ADD103C,0.07087*%
G04:AMPARAMS|DCode=104|XSize=35.43mil|YSize=62.99mil|CornerRadius=8.86mil|HoleSize=0mil|Usage=FLASHONLY|Rotation=270.000|XOffset=0mil|YOffset=0mil|HoleType=Round|Shape=RoundedRectangle|*
%AMROUNDEDRECTD104*
21,1,0.03543,0.04528,0,0,270.0*
21,1,0.01772,0.06299,0,0,270.0*
1,1,0.01772,-0.02264,-0.00886*
1,1,0.01772,-0.02264,0.00886*
1,1,0.01772,0.02264,0.00886*
1,1,0.01772,0.02264,-0.00886*
%
%ADD104ROUNDEDRECTD104*%
%ADD105C,0.02800*%
G36*
X212000Y107828D02*
X211805Y107633D01*
X211500Y106898D01*
Y106102D01*
X211805Y105367D01*
X212000Y105172D01*
Y88122D01*
X209586D01*
X209157Y88036D01*
X208793Y87793D01*
X208793Y87793D01*
X208207Y87207D01*
X207964Y86843D01*
X207878Y86414D01*
X207878Y86414D01*
Y68914D01*
X207878Y68914D01*
X207964Y68485D01*
X208207Y68121D01*
X209878Y66450D01*
Y65603D01*
X209609Y65482D01*
X209379Y65450D01*
X208865Y65963D01*
X208130Y66268D01*
X207334D01*
X206599Y65963D01*
X206037Y65401D01*
X205732Y64666D01*
Y64277D01*
X189103D01*
X188801Y64777D01*
X189000Y65258D01*
Y66053D01*
X188696Y66789D01*
X188133Y67351D01*
X187398Y67656D01*
X186602D01*
X185867Y67351D01*
X185304Y66789D01*
X185000Y66053D01*
Y65258D01*
X185199Y64777D01*
X184897Y64277D01*
X166122D01*
Y153000D01*
X212000D01*
Y107828D01*
D02*
G37*
G36*
X209550Y59378D02*
X209304Y59133D01*
X209000Y58398D01*
Y57602D01*
X209304Y56867D01*
X209867Y56305D01*
X209878Y56300D01*
Y38204D01*
X209878Y38204D01*
X209964Y37775D01*
X210207Y37411D01*
X210279Y37340D01*
Y22000D01*
X193135D01*
X189858Y25276D01*
X189247Y25685D01*
X188525Y25829D01*
X184811D01*
X184398Y26000D01*
X183602D01*
X182867Y25695D01*
X182305Y25133D01*
X182000Y24398D01*
Y23602D01*
X182305Y22867D01*
X182672Y22500D01*
X182465Y22000D01*
X179522D01*
Y56935D01*
X182465Y59878D01*
X209343D01*
X209550Y59378D01*
D02*
G37*
G36*
X165586Y62034D02*
X180741D01*
X180948Y61534D01*
X177607Y58193D01*
X177364Y57829D01*
X177278Y57400D01*
X177278Y57400D01*
Y22000D01*
X165000D01*
Y61668D01*
X165500Y62051D01*
X165586Y62034D01*
D02*
G37*
%LPC*%
G36*
X204898Y122500D02*
X204102D01*
X203367Y122195D01*
X202804Y121633D01*
X202500Y120898D01*
Y120102D01*
X202804Y119367D01*
X203367Y118805D01*
X204102Y118500D01*
X204898D01*
X205633Y118805D01*
X206195Y119367D01*
X206500Y120102D01*
Y120898D01*
X206195Y121633D01*
X205633Y122195D01*
X204898Y122500D01*
D02*
G37*
G36*
X188398Y113000D02*
X187602D01*
X186867Y112696D01*
X186304Y112133D01*
X186000Y111398D01*
Y110602D01*
X186304Y109867D01*
X186867Y109304D01*
X186999Y109250D01*
Y108750D01*
X186867Y108695D01*
X186304Y108133D01*
X186000Y107398D01*
Y106602D01*
X186304Y105867D01*
X186867Y105305D01*
X186999Y105250D01*
Y104750D01*
X186867Y104695D01*
X186304Y104133D01*
X186000Y103398D01*
Y102602D01*
X186304Y101867D01*
X186867Y101304D01*
X187602Y101000D01*
X188398D01*
X189133Y101304D01*
X189696Y101867D01*
X190000Y102602D01*
Y103398D01*
X189696Y104133D01*
X189133Y104695D01*
X189001Y104750D01*
Y105250D01*
X189133Y105305D01*
X189696Y105867D01*
X190000Y106602D01*
Y107398D01*
X189696Y108133D01*
X189133Y108695D01*
X189001Y108750D01*
Y109250D01*
X189133Y109304D01*
X189696Y109867D01*
X190000Y110602D01*
Y111398D01*
X189696Y112133D01*
X189133Y112696D01*
X188398Y113000D01*
D02*
G37*
G36*
X174398D02*
X173602D01*
X172867Y112696D01*
X172304Y112133D01*
X172000Y111398D01*
Y110602D01*
X172304Y109867D01*
X172867Y109304D01*
X172999Y109250D01*
Y108750D01*
X172867Y108695D01*
X172304Y108133D01*
X172000Y107398D01*
Y106602D01*
X172304Y105867D01*
X172867Y105305D01*
X172999Y105250D01*
Y104750D01*
X172867Y104695D01*
X172304Y104133D01*
X172000Y103398D01*
Y102602D01*
X172304Y101867D01*
X172795Y101377D01*
X172512Y100953D01*
X172398Y101000D01*
X171602D01*
X170867Y100696D01*
X170305Y100133D01*
X170000Y99398D01*
Y98602D01*
X170305Y97867D01*
X170867Y97304D01*
X171602Y97000D01*
X172398D01*
X173133Y97304D01*
X173696Y97867D01*
X174000Y98602D01*
Y99398D01*
X173696Y100133D01*
X173205Y100623D01*
X173488Y101047D01*
X173602Y101000D01*
X174398D01*
X175133Y101304D01*
X175696Y101867D01*
X176000Y102602D01*
Y103398D01*
X175696Y104133D01*
X175133Y104695D01*
X175001Y104750D01*
Y105250D01*
X175133Y105305D01*
X175696Y105867D01*
X176000Y106602D01*
Y107398D01*
X175696Y108133D01*
X175133Y108695D01*
X175001Y108750D01*
Y109250D01*
X175133Y109304D01*
X175696Y109867D01*
X176000Y110602D01*
Y111398D01*
X175696Y112133D01*
X175133Y112696D01*
X174398Y113000D01*
D02*
G37*
G36*
X196398Y95000D02*
X195602D01*
X194867Y94696D01*
X194305Y94133D01*
X194000Y93398D01*
Y92602D01*
X194305Y91867D01*
X194867Y91304D01*
X195602Y91000D01*
X196398D01*
X197133Y91304D01*
X197696Y91867D01*
X198000Y92602D01*
Y93398D01*
X197696Y94133D01*
X197133Y94696D01*
X196398Y95000D01*
D02*
G37*
G36*
X204398Y94500D02*
X203602D01*
X202867Y94195D01*
X202305Y93633D01*
X202000Y92898D01*
Y92102D01*
X202305Y91367D01*
X202867Y90804D01*
X203602Y90500D01*
X204398D01*
X205133Y90804D01*
X205696Y91367D01*
X206000Y92102D01*
Y92898D01*
X205696Y93633D01*
X205133Y94195D01*
X204398Y94500D01*
D02*
G37*
G36*
X174398Y56000D02*
X173602D01*
X172867Y55695D01*
X172304Y55133D01*
X172000Y54398D01*
Y53602D01*
X172304Y52867D01*
X172867Y52305D01*
X173602Y52000D01*
X174398D01*
X175133Y52305D01*
X175696Y52867D01*
X176000Y53602D01*
Y54398D01*
X175696Y55133D01*
X175133Y55695D01*
X174398Y56000D01*
D02*
G37*
%LPD*%
D10*
X165000Y63741D02*
Y155000D01*
X160500Y159500D02*
X165000Y155000D01*
X165586Y63156D02*
X206246D01*
X165000Y63741D02*
X165586Y63156D01*
X238430Y131328D02*
X248602Y141500D01*
X227000Y121500D02*
X236828Y131328D01*
X238430D01*
X154193Y153000D02*
X156097Y151096D01*
X153900Y153000D02*
X154193D01*
X154207Y145000D02*
X156104Y143103D01*
X153900Y159000D02*
X157400D01*
X156097Y151096D02*
X157404D01*
X153865Y156500D02*
X160914D01*
X151400Y154035D02*
X153865Y156500D01*
X153900Y145000D02*
X154207D01*
X151400Y151500D02*
Y154035D01*
X156104Y143103D02*
X157411D01*
X151400Y151500D02*
X153900Y149000D01*
X146569Y86081D02*
X147656Y87169D01*
Y89656D01*
X146569Y84398D02*
Y86081D01*
X147656Y89656D02*
X148000Y90000D01*
X146569Y84398D02*
X151600Y79366D01*
X157411Y143103D02*
X158300Y142214D01*
X157900Y159500D02*
X160500D01*
X157404Y151096D02*
X159900Y148600D01*
X157400Y159000D02*
X157900Y159500D01*
X211000Y38204D02*
X211400Y37804D01*
X211000Y38204D02*
Y58000D01*
Y71098D02*
X213500Y68598D01*
Y22374D02*
X217673Y18201D01*
X213500Y22374D02*
Y68598D01*
X211400Y21154D02*
X216853Y15701D01*
X211400Y21154D02*
Y37804D01*
X209000Y68914D02*
X211000Y66914D01*
Y61586D02*
Y66914D01*
X210414Y61000D02*
X211000Y61586D01*
X182000Y61000D02*
X210414D01*
X211000Y71098D02*
Y82527D01*
X211156Y83669D02*
X211500Y84013D01*
X211156Y82683D02*
Y83669D01*
X211000Y82527D02*
X211156Y82683D01*
X209000Y86414D02*
X209586Y87000D01*
X209000Y68914D02*
Y86414D01*
X209586Y87000D02*
X213987D01*
X207359Y64268D02*
X207732D01*
X206246Y63156D02*
X207359Y64268D01*
X178400Y20620D02*
Y57400D01*
X182000Y61000D01*
X217670Y21955D02*
X220389Y19236D01*
X215600Y25992D02*
Y44613D01*
X220389Y17165D02*
Y19236D01*
X215600Y44613D02*
X219000Y48013D01*
Y66634D01*
X216853Y15701D02*
X218924D01*
X215600Y25992D02*
X217092Y24500D01*
X213634Y72000D02*
X219000Y66634D01*
X218924Y15701D02*
X220389Y17165D01*
X217673Y18201D02*
X217888D01*
X217455Y21955D02*
X217670D01*
X217092Y24500D02*
X222000D01*
X95468Y61532D02*
X139794D01*
X90000Y67000D02*
X95468Y61532D01*
X105000Y68000D02*
X111401D01*
X115401Y64000D01*
X182533Y16487D02*
X187000D01*
X178400Y20620D02*
X182533Y16487D01*
X213987Y87000D02*
X216675Y84312D01*
X160914Y156500D02*
X161500Y155914D01*
Y62237D02*
Y155914D01*
X157000Y60000D02*
X159900Y62900D01*
Y148600D01*
X235931Y62932D02*
X241000Y68000D01*
X223500Y68036D02*
X227000Y71535D01*
X224500Y29500D02*
Y29986D01*
X223500Y30986D02*
Y68036D01*
Y30986D02*
X224500Y29986D01*
X235931Y39616D02*
Y62932D01*
X302000Y143370D02*
Y167500D01*
X298000Y139370D02*
X302000Y143370D01*
X285000Y184500D02*
X302000Y167500D01*
X285000Y178500D02*
X298000Y165500D01*
Y149213D02*
Y165500D01*
X227000Y71535D02*
Y121500D01*
X158300Y63563D02*
Y142214D01*
X154596Y59859D02*
X158300Y63563D01*
X159500Y60237D02*
X161500Y62237D01*
X153200Y74937D02*
Y80029D01*
X139794Y61532D02*
X153200Y74937D01*
X151600Y75600D02*
Y79366D01*
X140000Y64000D02*
X151600Y75600D01*
X150500Y82729D02*
X153200Y80029D01*
X150500Y82729D02*
Y87000D01*
X115401Y64000D02*
X140000D01*
X159500Y54000D02*
Y60237D01*
X154596Y49288D02*
X154692Y49192D01*
X154596Y49288D02*
Y59859D01*
X157000Y51692D02*
Y60000D01*
Y51692D02*
X157096Y51596D01*
X30939Y150500D02*
X32311Y149128D01*
X34918D01*
X36547Y147500D01*
X15500Y150500D02*
X30939D01*
X12500Y147500D02*
X15500Y150500D01*
X12500Y115500D02*
Y147500D01*
X7341Y110341D02*
X12500Y115500D01*
X35000Y144000D02*
X52898Y126102D01*
X17000Y144000D02*
X35000D01*
X36547Y147500D02*
X45500D01*
X35284Y146500D02*
X53278Y128506D01*
X17357Y148000D02*
X18857Y146500D01*
X35284D01*
X96000Y125464D02*
Y131000D01*
X86536Y116000D02*
X96000Y125464D01*
X52000Y175000D02*
X96000Y131000D01*
X83024Y121000D02*
X87508Y125483D01*
X89983D02*
X90328Y125828D01*
X87508Y125483D02*
X89983D01*
X29000Y121000D02*
X83024D01*
X82000Y114964D02*
Y117035D01*
X86530Y121566D02*
X89838D01*
X82000Y117035D02*
X86530Y121566D01*
X86500Y116000D02*
X86536D01*
X96465Y100500D02*
X113500D01*
X82000Y114964D02*
X96465Y100500D01*
X216675Y83825D02*
Y84312D01*
X235931Y39616D02*
X241547Y34000D01*
X78732Y144732D02*
X94369Y129096D01*
X89838Y121566D02*
X94369Y126096D01*
Y129096D01*
X52000Y175000D02*
Y184500D01*
X38872Y169128D02*
X64000Y144000D01*
X29128Y169128D02*
X38872D01*
X83273Y128118D02*
X83617Y127774D01*
X79066Y128602D02*
X81138D01*
X81621Y128118D02*
X83273D01*
X81138Y128602D02*
X81621Y128118D01*
X7341Y98003D02*
Y110341D01*
X11000Y86000D02*
Y94344D01*
X7341Y98003D02*
X11000Y94344D01*
X22500Y162500D02*
X29128Y169128D01*
X52898Y126102D02*
X80102D01*
X53278Y128506D02*
X78971D01*
X79066Y128602D01*
X17000Y148000D02*
X17357D01*
D92*
X37500Y172000D02*
D03*
X41500Y152000D02*
D03*
X33500D02*
D03*
D96*
X198949Y46811D02*
D03*
X203279D02*
D03*
X198949Y42480D02*
D03*
X203279D02*
D03*
X198949Y38150D02*
D03*
X203279D02*
D03*
X198949Y33819D02*
D03*
X203279D02*
D03*
X198949Y29488D02*
D03*
X203279D02*
D03*
X198949Y25157D02*
D03*
X203279D02*
D03*
D99*
X201083Y7000D02*
X261500D01*
X184057Y23943D02*
X188525D01*
X184000Y24000D02*
X184057Y23943D01*
X184000Y19276D02*
X184057Y19333D01*
X185250D02*
X185654Y19737D01*
X188346D02*
X201083Y7000D01*
X185654Y19737D02*
X188346D01*
X188525Y23943D02*
X202217Y10250D01*
X257750D01*
X184057Y19333D02*
X185250D01*
X257750Y10250D02*
X265616Y18116D01*
Y36000D01*
X261500Y7000D02*
X270500Y16000D01*
Y34500D01*
X299000Y63000D01*
Y138289D01*
X293500Y144713D02*
X298000Y149213D01*
Y149213D01*
X293500Y63884D02*
Y144713D01*
X265616Y36000D02*
X293500Y63884D01*
X298000Y139289D02*
Y139370D01*
Y139289D02*
X299000Y138289D01*
D100*
X133622Y88000D02*
D03*
Y128000D02*
D03*
X145000Y108000D02*
D03*
D101*
X236000Y175842D02*
D03*
D102*
Y156158D02*
D03*
X11000Y86000D02*
D03*
Y103717D02*
D03*
X56000Y42500D02*
D03*
X46000Y47500D02*
D03*
X56000Y52500D02*
D03*
X46000Y57500D02*
D03*
D103*
X20803Y81059D02*
D03*
Y108658D02*
D03*
D104*
X6000Y185592D02*
D03*
X6197Y159400D02*
D03*
D105*
X46000Y107000D02*
D03*
X65000Y118000D02*
D03*
X168000Y76000D02*
D03*
X196000Y93000D02*
D03*
X172000Y99000D02*
D03*
X129318Y75318D02*
D03*
X126000Y114000D02*
D03*
X128000Y128000D02*
D03*
X122937Y128469D02*
D03*
X248602Y141500D02*
D03*
X244000Y128000D02*
D03*
X243000Y190000D02*
D03*
X246000D02*
D03*
X249000D02*
D03*
X252000D02*
D03*
X268000D02*
D03*
X264000D02*
D03*
X261000D02*
D03*
X258000D02*
D03*
X153900Y145000D02*
D03*
Y149000D02*
D03*
Y159000D02*
D03*
Y153000D02*
D03*
X148000Y90000D02*
D03*
X211000Y58000D02*
D03*
X208454Y37214D02*
D03*
X211500Y84013D02*
D03*
X174500Y41000D02*
D03*
X204500Y82500D02*
D03*
X187000Y65656D02*
D03*
X192000Y76000D02*
D03*
X207732Y64268D02*
D03*
X174000Y54000D02*
D03*
X217888Y18201D02*
D03*
X216500Y58500D02*
D03*
X218100Y27028D02*
D03*
X90000Y67000D02*
D03*
X105000Y68000D02*
D03*
X187000Y16487D02*
D03*
X184000Y24000D02*
D03*
Y19276D02*
D03*
X174000Y126000D02*
D03*
Y130000D02*
D03*
Y134000D02*
D03*
X157096Y51596D02*
D03*
X217455Y21955D02*
D03*
X222000Y24500D02*
D03*
X224500Y29500D02*
D03*
X154692Y49192D02*
D03*
X159500Y54000D02*
D03*
X267000Y78500D02*
D03*
X266500Y71000D02*
D03*
X263500Y68000D02*
D03*
X259500Y66000D02*
D03*
X227487Y13500D02*
D03*
X234527Y15072D02*
D03*
X241000Y68000D02*
D03*
X229500Y58500D02*
D03*
X293298Y52702D02*
D03*
X285000Y184500D02*
D03*
Y178500D02*
D03*
X45756Y183000D02*
D03*
X148000Y78000D02*
D03*
X150500Y87000D02*
D03*
X162500Y59000D02*
D03*
X174000Y103000D02*
D03*
X90328Y125828D02*
D03*
X86500Y116000D02*
D03*
X89714Y103715D02*
D03*
X97362Y98000D02*
D03*
X213634Y72000D02*
D03*
X222378Y83878D02*
D03*
X216675Y83825D02*
D03*
X267000Y75000D02*
D03*
X243500Y40000D02*
D03*
X245000Y66000D02*
D03*
X248500D02*
D03*
X252500D02*
D03*
X256000D02*
D03*
X244007Y57993D02*
D03*
X229000Y48500D02*
D03*
X228500Y34500D02*
D03*
X162500Y23000D02*
D03*
X241547Y34000D02*
D03*
X65518Y165018D02*
D03*
X52000Y184500D02*
D03*
X78732Y144732D02*
D03*
X270500Y178500D02*
D03*
Y184500D02*
D03*
X174000Y107000D02*
D03*
X276000Y32000D02*
D03*
X280000D02*
D03*
X155000Y67500D02*
D03*
X298000Y139370D02*
D03*
Y149213D02*
D03*
X174000Y111000D02*
D03*
X204000Y92500D02*
D03*
X204500Y120500D02*
D03*
X188000Y111000D02*
D03*
X213500Y106500D02*
D03*
X188000Y103000D02*
D03*
X272000Y48000D02*
D03*
Y52000D02*
D03*
Y56000D02*
D03*
X308000Y32000D02*
D03*
X304000D02*
D03*
X300000D02*
D03*
X296000D02*
D03*
X292000D02*
D03*
X288000D02*
D03*
X284000D02*
D03*
X300500Y41000D02*
D03*
X295500D02*
D03*
X290500D02*
D03*
X144000Y78000D02*
D03*
X130000Y58000D02*
D03*
X126000D02*
D03*
X122000D02*
D03*
X118000D02*
D03*
X126000Y76000D02*
D03*
X122000D02*
D03*
X118000D02*
D03*
X140000Y78000D02*
D03*
X130000Y34000D02*
D03*
Y38000D02*
D03*
Y42000D02*
D03*
X242000Y84000D02*
D03*
Y72000D02*
D03*
Y76000D02*
D03*
Y80000D02*
D03*
X246000Y84000D02*
D03*
X250000D02*
D03*
X254000D02*
D03*
Y80000D02*
D03*
X250000D02*
D03*
X246000D02*
D03*
Y72000D02*
D03*
Y76000D02*
D03*
X250000Y29650D02*
D03*
X262000D02*
D03*
X254000D02*
D03*
X246000D02*
D03*
X258000D02*
D03*
X188000Y76000D02*
D03*
X184000D02*
D03*
X176000D02*
D03*
X172000D02*
D03*
X188000Y126000D02*
D03*
Y130000D02*
D03*
Y134000D02*
D03*
Y138000D02*
D03*
X174000D02*
D03*
X188000Y107000D02*
D03*
X308000Y70000D02*
D03*
X274000Y22000D02*
D03*
Y10000D02*
D03*
Y14000D02*
D03*
X272000Y60000D02*
D03*
Y64000D02*
D03*
X274000Y18000D02*
D03*
X264000Y58000D02*
D03*
X260000D02*
D03*
X256000D02*
D03*
X252000D02*
D03*
X248000D02*
D03*
X136744Y12000D02*
D03*
X83617Y127774D02*
D03*
X113500Y100500D02*
D03*
X99528Y26528D02*
D03*
X77138Y71862D02*
D03*
X77362Y58862D02*
D03*
X77638Y53138D02*
D03*
X63000Y32000D02*
D03*
X100500Y80500D02*
D03*
X52000Y123500D02*
D03*
X45500Y147500D02*
D03*
X30000Y156000D02*
D03*
X57518Y133518D02*
D03*
X22500Y162500D02*
D03*
X26482Y170018D02*
D03*
X64000Y144000D02*
D03*
X78929Y134374D02*
D03*
X104500Y167000D02*
D03*
X111015Y160987D02*
D03*
X74862Y167638D02*
D03*
X64000Y81000D02*
D03*
X74000D02*
D03*
X90862Y94138D02*
D03*
X87862D02*
D03*
X137000Y157000D02*
D03*
X79000Y138000D02*
D03*
X81945Y161945D02*
D03*
X119000Y167000D02*
D03*
X127000Y180000D02*
D03*
X80102Y126102D02*
D03*
X29000Y121000D02*
D03*
X30000Y140000D02*
D03*
Y135000D02*
D03*
Y130000D02*
D03*
X20600Y167400D02*
D03*
X17000Y144000D02*
D03*
Y148000D02*
D03*
M02*
