G04*
G04 #@! TF.GenerationSoftware,Altium Limited,Altium Designer,21.5.1 (32)*
G04*
G04 Layer_Color=8421504*
%FSLAX25Y25*%
%MOIN*%
G70*
G04*
G04 #@! TF.SameCoordinates,FA076E1F-1FF3-4579-943B-07A78E15B8C1*
G04*
G04*
G04 #@! TF.FilePolarity,Positive*
G04*
G01*
G75*
%ADD15R,0.07480X0.04724*%
%ADD16R,0.07087X0.04331*%
%ADD17R,0.03937X0.03937*%
%ADD18R,0.03937X0.03937*%
%ADD19R,0.06300X0.01200*%
%ADD20R,0.01200X0.06300*%
%ADD21R,0.03772X0.03591*%
%ADD22R,0.02362X0.03150*%
%ADD23R,0.02985X0.03197*%
%ADD24R,0.07874X0.19685*%
%ADD25R,0.20276X0.02756*%
%ADD26O,0.05512X0.01772*%
%ADD27R,0.09449X0.25433*%
%ADD28R,0.04560X0.03985*%
%ADD29R,0.05118X0.10630*%
%ADD30R,0.02756X0.03543*%
%ADD31R,0.11024X0.20866*%
%ADD32R,0.03543X0.02756*%
%ADD33R,0.11811X0.05512*%
%ADD34R,0.22047X0.08661*%
%ADD35R,0.03150X0.03937*%
%ADD36R,0.03937X0.06693*%
%ADD37R,0.15000X0.11000*%
%ADD38R,0.05118X0.04134*%
%ADD39R,0.04331X0.07480*%
%ADD40R,0.08583X0.02362*%
%ADD41R,0.06221X0.04173*%
%ADD42R,0.03591X0.03772*%
%ADD43R,0.10630X0.05118*%
%ADD44R,0.02362X0.06102*%
%ADD45R,0.04921X0.07087*%
%ADD46R,0.05906X0.02362*%
%ADD47R,0.05400X0.01600*%
%ADD48R,0.05600X0.06300*%
%ADD49R,0.07100X0.07100*%
%ADD50R,0.08700X0.14200*%
%ADD51R,0.08800X0.04800*%
%ADD52R,0.11614X0.09252*%
%ADD53R,0.17323X0.12992*%
%ADD54R,0.24410X0.15354*%
%ADD55R,0.02559X0.04724*%
%ADD56R,0.02756X0.04724*%
D15*
X6000Y185592D02*
D03*
D16*
X6197Y159411D02*
D03*
D17*
X262205Y92520D02*
D03*
X274016D02*
D03*
X262205Y100394D02*
D03*
X274016D02*
D03*
D18*
X268110Y92520D02*
D03*
Y100394D02*
D03*
D19*
X72299Y118095D02*
D03*
Y120063D02*
D03*
Y122031D02*
D03*
Y124000D02*
D03*
Y125969D02*
D03*
Y127937D02*
D03*
Y129905D02*
D03*
Y131874D02*
D03*
Y133858D02*
D03*
Y135858D02*
D03*
Y137858D02*
D03*
Y139758D02*
D03*
Y141758D02*
D03*
Y143758D02*
D03*
Y145658D02*
D03*
Y147658D02*
D03*
X117240D02*
D03*
Y145658D02*
D03*
Y143758D02*
D03*
Y141758D02*
D03*
Y139758D02*
D03*
Y137858D02*
D03*
Y135858D02*
D03*
Y133858D02*
D03*
Y131874D02*
D03*
Y129905D02*
D03*
Y127937D02*
D03*
Y125969D02*
D03*
Y124000D02*
D03*
Y122031D02*
D03*
Y120063D02*
D03*
Y118095D02*
D03*
D20*
X79976Y155358D02*
D03*
X81945D02*
D03*
X83913D02*
D03*
X85882D02*
D03*
X87850D02*
D03*
X89819D02*
D03*
X91787D02*
D03*
X93756D02*
D03*
X95740D02*
D03*
X97740D02*
D03*
X99740D02*
D03*
X101640D02*
D03*
X103640D02*
D03*
X105640D02*
D03*
X107540D02*
D03*
X109540D02*
D03*
Y110417D02*
D03*
X107540D02*
D03*
X105640D02*
D03*
X103640D02*
D03*
X101640D02*
D03*
X99740D02*
D03*
X97740D02*
D03*
X95740D02*
D03*
X93756D02*
D03*
X91787D02*
D03*
X89819D02*
D03*
X87850D02*
D03*
X85882D02*
D03*
X83913D02*
D03*
X81945D02*
D03*
X79976D02*
D03*
D21*
X52138Y107000D02*
D03*
X57862D02*
D03*
X174138Y25500D02*
D03*
X179862D02*
D03*
X166638Y59000D02*
D03*
X172362D02*
D03*
X136972Y180102D02*
D03*
X131248D02*
D03*
X127311Y156480D02*
D03*
X133035D02*
D03*
X109138Y167000D02*
D03*
X114862D02*
D03*
X74862Y164000D02*
D03*
X69138D02*
D03*
X220138Y58500D02*
D03*
X225862D02*
D03*
D22*
X219941Y48500D02*
D03*
X225059D02*
D03*
D23*
X224468Y35000D02*
D03*
X219531D02*
D03*
D24*
X181000Y107000D02*
D03*
Y129000D02*
D03*
D25*
X255000Y185516D02*
D03*
Y162484D02*
D03*
D26*
X189500Y52618D02*
D03*
Y50059D02*
D03*
Y47500D02*
D03*
Y44941D02*
D03*
Y42382D02*
D03*
Y39823D02*
D03*
Y37264D02*
D03*
Y34705D02*
D03*
Y32146D02*
D03*
Y29587D02*
D03*
Y27028D02*
D03*
Y24468D02*
D03*
Y21910D02*
D03*
Y19350D02*
D03*
X212728Y52618D02*
D03*
Y50059D02*
D03*
Y47500D02*
D03*
Y44941D02*
D03*
Y42382D02*
D03*
Y39823D02*
D03*
Y37264D02*
D03*
Y34705D02*
D03*
Y32146D02*
D03*
Y29587D02*
D03*
Y27028D02*
D03*
Y24468D02*
D03*
Y21910D02*
D03*
Y19350D02*
D03*
D27*
X201114Y35984D02*
D03*
D28*
X238256Y27500D02*
D03*
X231744D02*
D03*
Y39500D02*
D03*
X238256D02*
D03*
Y19000D02*
D03*
X231744D02*
D03*
D29*
X127012Y90500D02*
D03*
X115988D02*
D03*
X80512Y32000D02*
D03*
X69488D02*
D03*
D30*
X222256Y79000D02*
D03*
X216744D02*
D03*
X162244Y19500D02*
D03*
X167756D02*
D03*
X204744Y79000D02*
D03*
X210256D02*
D03*
X204744Y72500D02*
D03*
X210256D02*
D03*
X222256Y72000D02*
D03*
X216744D02*
D03*
X31256Y183000D02*
D03*
X25744D02*
D03*
X42256D02*
D03*
X36744D02*
D03*
X174244Y31500D02*
D03*
X179756D02*
D03*
X232244Y34000D02*
D03*
X237756D02*
D03*
X134756Y141000D02*
D03*
X129244D02*
D03*
X197244Y65000D02*
D03*
X202756D02*
D03*
X147756Y143000D02*
D03*
X142244D02*
D03*
X134756Y146000D02*
D03*
X129244D02*
D03*
X177744Y64000D02*
D03*
X183256D02*
D03*
X183256Y59000D02*
D03*
X177744D02*
D03*
X174244Y19500D02*
D03*
X179756D02*
D03*
X174244Y36500D02*
D03*
X179756D02*
D03*
X274744Y184500D02*
D03*
X280256D02*
D03*
X274744Y178500D02*
D03*
X280256D02*
D03*
X26756Y130000D02*
D03*
X21244D02*
D03*
X26756Y135000D02*
D03*
X21244D02*
D03*
X26756Y140000D02*
D03*
X21244D02*
D03*
D31*
X204331Y106299D02*
D03*
X244094D02*
D03*
D32*
X244000Y133244D02*
D03*
Y138756D02*
D03*
Y143744D02*
D03*
Y149256D02*
D03*
X239000Y47244D02*
D03*
Y52756D02*
D03*
X27000Y166756D02*
D03*
Y161244D02*
D03*
D33*
X281693Y168898D02*
D03*
Y159055D02*
D03*
Y149213D02*
D03*
Y139370D02*
D03*
D34*
X300787Y181496D02*
D03*
Y126772D02*
D03*
D35*
X237953Y11500D02*
D03*
X232047D02*
D03*
D36*
X250791Y74000D02*
D03*
X262209D02*
D03*
D37*
X262000Y123951D02*
D03*
Y152049D02*
D03*
D38*
X126236Y164945D02*
D03*
X135291D02*
D03*
Y172228D02*
D03*
X126236D02*
D03*
D39*
X64000Y99000D02*
D03*
X73843D02*
D03*
D40*
X10118Y126945D02*
D03*
Y130488D02*
D03*
Y134031D02*
D03*
Y137575D02*
D03*
Y141118D02*
D03*
D41*
X8937Y122417D02*
D03*
Y145646D02*
D03*
D42*
X84000Y94138D02*
D03*
Y99862D02*
D03*
X64000Y89862D02*
D03*
Y84138D02*
D03*
X74000Y89862D02*
D03*
Y84138D02*
D03*
X62000Y138862D02*
D03*
Y133138D02*
D03*
X94000Y99862D02*
D03*
Y94138D02*
D03*
X62000Y125862D02*
D03*
Y120138D02*
D03*
X126000Y123862D02*
D03*
Y118138D02*
D03*
X82000Y58862D02*
D03*
Y53138D02*
D03*
Y71862D02*
D03*
Y66138D02*
D03*
X233500Y53638D02*
D03*
Y59362D02*
D03*
D43*
X52000Y128488D02*
D03*
Y139512D02*
D03*
X187000Y81488D02*
D03*
Y92512D02*
D03*
X172000Y81488D02*
D03*
Y92512D02*
D03*
D44*
X105500Y53370D02*
D03*
X100500D02*
D03*
X95500D02*
D03*
X90500D02*
D03*
Y74630D02*
D03*
X95500D02*
D03*
X100500D02*
D03*
X105500D02*
D03*
D45*
X82004Y20000D02*
D03*
X69996D02*
D03*
X68996Y44000D02*
D03*
X81004D02*
D03*
D46*
X104260Y25740D02*
D03*
Y18260D02*
D03*
X111740Y22000D02*
D03*
D47*
X16433Y172600D02*
D03*
Y170000D02*
D03*
Y175159D02*
D03*
Y177718D02*
D03*
Y167400D02*
D03*
D48*
X15449Y160000D02*
D03*
Y185198D02*
D03*
D49*
X6000Y177128D02*
D03*
Y168000D02*
D03*
D50*
X147300Y43000D02*
D03*
D51*
X122800Y33900D02*
D03*
Y43000D02*
D03*
Y52100D02*
D03*
D52*
X143744Y19000D02*
D03*
X124256D02*
D03*
X125256Y67000D02*
D03*
X144744D02*
D03*
D53*
X256693Y46063D02*
D03*
D54*
X292126Y68701D02*
D03*
Y17913D02*
D03*
D55*
X260236Y84646D02*
D03*
X265236D02*
D03*
X270236D02*
D03*
X275236D02*
D03*
D56*
X260236Y106890D02*
D03*
X265236D02*
D03*
X270236D02*
D03*
X275236D02*
D03*
M02*
