M48
;Layer_Color=9474304
;FILE_FORMAT=2:5
INCH,LZ
;TYPE=PLATED
T1F00S00C0.01181
T3F00S00C0.03150
T4F00S00C0.03543
T5F00S00C0.03937
T6F00S00C0.04331
T7F00S00C0.05118
T8F00S00C0.07874
;TYPE=NON_PLATED
T9F00S00C0.03543
T10F00S00C0.04331
T11F00S00C0.12795
%
T01
X0063Y0032
X0077638Y0053138
X0099528Y0026528
X013Y0034
Y0038
Y0042
X0154692Y0049192
X0157096Y0051596
X01595Y0054
X0174
X01745Y0041
X0198949Y004248
Y003815
X0203279
Y004248
Y0046811
X0198949
Y0033819
X0203279
Y0029488
X0198949
Y0025157
X0203279
X0208454Y0037214
X0184Y0024
Y0019276
X0187Y0016487
X01625Y0023
X0136744Y0012
X0217888Y0018201
X0217455Y0021955
X02181Y0027028
X0222Y00245
X02245Y00295
X02285Y00345
X0241547Y0034
X02435Y004
X0246Y002965
X025
X0254
X0258
X0262
X0276Y0032
X028
X0284
X0288
X0292
X0296
X03
X0304
X0308
X03005Y0041
X02955
X02905
X0293298Y0052702
X0272Y0052
Y0048
Y0056
X0274Y0022
Y0018
Y0014
Y001
X0234527Y0015072
X0227487Y00135
X0229Y00485
X02295Y00585
X02165
X0216675Y0083825
X0222378Y0083878
X0242Y0084
Y008
Y0076
Y0072
X0246
Y0076
Y008
Y0084
X025
X0254
Y008
X025
X02485Y0066
X0245
X0241Y0068
X0244007Y0057993
X0248Y0058
X0252
X0256
X026
X0264
X0272Y006
Y0064
X02665Y0071
X0267Y0075
Y00785
X02635Y0068
X02595Y0066
X0256
X02525
X0308Y007
X0298Y013937
Y0149213
X0285Y01785
Y01845
X02705
Y01785
X0268Y019
X0264
X0261
X0258
X0252
X0249
X0246
X0243
X0248602Y01415
X0244Y0128
X02045Y01205
X0188Y0126
Y013
Y0134
Y0138
X0174
Y0134
Y013
Y0126
Y0111
Y0107
Y0103
X0172Y0099
X0188Y0103
Y0107
Y0111
X0196Y0093
X0204Y00925
X02045Y00825
X02115Y0084013
X0213634Y0072
X0207732Y0064268
X0211Y0058
X0187Y0065656
X0188Y0076
X0192
X0184
X0176
X0172
X0168
X0155Y00675
X01625Y0059
X0148Y0078
X0144
X014
X0129318Y0075318
X0126Y0076
X0122
X0118
Y0058
X0122
X0126
X013
X0105Y0068
X009Y0067
X0077138Y0071862
X0074Y0081
X0064
X0077362Y0058862
X01005Y00805
X0097362Y0098
X0090862Y0094138
X0087862
X0089714Y0103715
X00865Y0116
X0090328Y0125828
X0083617Y0127774
X0080102Y0126102
X0078929Y0134374
X0079Y0138
X0078732Y0144732
X0064Y0144
X0065518Y0165018
X0074862Y0167638
X0081945Y0161945
X01045Y0167
X0111015Y0160987
X0119Y0167
X0127Y018
X0137Y0157
X01539Y0159
Y0153
Y0149
Y0145
X0128Y0128
X0122937Y0128469
X0126Y0114
X01135Y01005
X0148Y009
X01505Y0087
X02135Y01065
X0065Y0118
X0052Y01235
X0057518Y0133518
X00455Y01475
X003Y014
Y0135
Y013
X0029Y0121
X0046Y0107
X003Y0156
X00225Y01625
X00206Y01674
X0026482Y0170018
X0017Y0148
Y0144
X0045756Y0183
X0052Y01845
T03
X0236Y0156158
Y0175842
T04
X0046Y00475
Y00575
X0056Y00525
Y00425
T05
X0011Y0086
Y0103717
T06
X0133622Y0088
X0145Y0108
X0133622Y0128
T07
X0020803Y0081059
Y0108658
T08
X0307087Y0043307
T09
X00335Y0152
X00415
X00375Y0172
T10
X030315Y0135039
Y0173228
T11
X0021Y0035
Y0065
M30
